<?xml version="1.0" encoding="UTF-8"?>
<svg id="Layer_2" data-name="Layer 2" xmlns="http://www.w3.org/2000/svg" xmlns:xlink="http://www.w3.org/1999/xlink" viewBox="0 0 1080 1080">
  <defs>
    <style>
      .cls-1 {
        fill: none;
      }

      .cls-2 {
        fill: #999;
        opacity: .1;
      }

      .cls-3 {
        fill: url(#linear-gradient);
      }

      .cls-4 {
        fill: #009175;
      }

      .cls-5 {
        fill: #eaad7f;
      }

      .cls-6 {
        fill: #e98f55;
      }

      .cls-7 {
        fill: #822e8e;
      }

      .cls-8 {
        fill: #ceab7c;
      }

      .cls-9 {
        fill: #bf6056;
      }

      .cls-10 {
        fill: #232642;
      }

      .cls-11 {
        fill: #2d2d2d;
      }

      .cls-12 {
        fill: url(#linear-gradient-8);
      }

      .cls-13 {
        fill: url(#linear-gradient-9);
      }

      .cls-14 {
        fill: url(#linear-gradient-3);
      }

      .cls-15 {
        fill: url(#linear-gradient-4);
      }

      .cls-16 {
        fill: url(#linear-gradient-2);
      }

      .cls-17 {
        fill: url(#linear-gradient-6);
      }

      .cls-18 {
        fill: url(#linear-gradient-7);
      }

      .cls-19 {
        fill: url(#linear-gradient-5);
      }

      .cls-20 {
        fill: url(#linear-gradient-14);
      }

      .cls-21 {
        fill: url(#linear-gradient-15);
      }

      .cls-22 {
        fill: url(#linear-gradient-16);
      }

      .cls-23 {
        fill: url(#linear-gradient-17);
      }

      .cls-24 {
        fill: url(#linear-gradient-13);
      }

      .cls-25 {
        fill: url(#linear-gradient-12);
      }

      .cls-26 {
        fill: url(#linear-gradient-10);
      }

      .cls-27 {
        fill: url(#linear-gradient-11);
      }
    </style>
    <linearGradient id="linear-gradient" x1="653.32" y1="221.09" x2="692.18" y2="221.09" gradientUnits="userSpaceOnUse">
      <stop offset="0" stop-color="#b0b0b0"/>
      <stop offset="1" stop-color="#999"/>
    </linearGradient>
    <linearGradient id="linear-gradient-2" x1="633.04" y1="216.9" x2="801.03" y2="216.9" gradientUnits="userSpaceOnUse">
      <stop offset="0" stop-color="#fff"/>
      <stop offset="1" stop-color="#c9c9c9"/>
    </linearGradient>
    <linearGradient id="linear-gradient-3" x1="738.32" y1="244.3" x2="765.73" y2="244.3" xlink:href="#linear-gradient"/>
    <linearGradient id="linear-gradient-4" x1="653.1" y1="398.98" x2="808.57" y2="398.98" gradientTransform="translate(24.27 -48.15) rotate(3.61)" gradientUnits="userSpaceOnUse">
      <stop offset="0" stop-color="#4d4d4d"/>
      <stop offset=".03" stop-color="#6c6d70"/>
      <stop offset="1" stop-color="#1a1a1a"/>
    </linearGradient>
    <linearGradient id="linear-gradient-5" x1="540.96" y1="332.55" x2="759.76" y2="332.55" gradientUnits="userSpaceOnUse">
      <stop offset="0" stop-color="#c654d6"/>
      <stop offset="1" stop-color="#ad37d3"/>
    </linearGradient>
    <linearGradient id="linear-gradient-6" x1="334.89" y1="338.44" x2="516.16" y2="338.44" gradientUnits="userSpaceOnUse">
      <stop offset="0" stop-color="#00facb"/>
      <stop offset="1" stop-color="#00f99f"/>
    </linearGradient>
    <linearGradient id="linear-gradient-7" x1="376.07" y1="554.18" x2="741.26" y2="554.18" gradientUnits="userSpaceOnUse">
      <stop offset="0" stop-color="#384196"/>
      <stop offset="1" stop-color="#393d7a"/>
    </linearGradient>
    <linearGradient id="linear-gradient-8" x1="202.29" y1="598.7" x2="265.73" y2="598.7" gradientUnits="userSpaceOnUse">
      <stop offset="0" stop-color="#262626"/>
      <stop offset="1" stop-color="#0d0d0d"/>
    </linearGradient>
    <linearGradient id="linear-gradient-9" x1="186.6" y1="593.77" x2="337.37" y2="593.77" gradientTransform="matrix(1, 0, 0, 1, 0, 0)" xlink:href="#linear-gradient-4"/>
    <linearGradient id="linear-gradient-10" x1="246.63" y1="385.67" x2="396.15" y2="385.67" xlink:href="#linear-gradient-2"/>
    <linearGradient id="linear-gradient-11" x1="305.14" y1="419.51" x2="327.11" y2="419.51" xlink:href="#linear-gradient"/>
    <linearGradient id="linear-gradient-12" x1="548.78" y1="612.21" x2="620.98" y2="612.21" xlink:href="#linear-gradient"/>
    <linearGradient id="linear-gradient-13" x1="542.51" y1="567.73" x2="671.59" y2="567.73" xlink:href="#linear-gradient-2"/>
    <linearGradient id="linear-gradient-14" x1="675" y1="859.45" x2="675.93" y2="859.45" gradientTransform="matrix(1, 0, 0, 1, 0, 0)" xlink:href="#linear-gradient-4"/>
    <linearGradient id="linear-gradient-15" x1="533.46" y1="757.05" x2="700.46" y2="757.05" gradientTransform="matrix(1, 0, 0, 1, 0, 0)" xlink:href="#linear-gradient-4"/>
    <linearGradient id="linear-gradient-16" x1="564.09" y1="752.66" x2="618.78" y2="752.66" xlink:href="#linear-gradient-8"/>
    <linearGradient id="linear-gradient-17" x1="621.83" y1="808.03" x2="680.29" y2="808.03" xlink:href="#linear-gradient-8"/>
  </defs>
  <g id="Layer_1-2" data-name="Layer 1">
    <g>
      <g>
        <rect class="cls-1" width="1080" height="1080"/>
        <path class="cls-2" d="M940.5,522.9c-1.42-157.83-197.64-237.71-476.94-167.35C184.26,425.92,38.54,646.29,91.64,754.15c43.41,88.18,103.76,55.12,201.8,105.75,95.28,49.2,211.62,140.27,332.02,110.72,184.78-45.34,159.46-113.36,205.35-231.59,36.08-92.95,110.79-94.01,109.68-216.13Z"/>
      </g>
      <path class="cls-3" d="M658.99,236.19c4.72-2.7,9.5-5.27,14.59-7.25,2-.77,4.33-1.25,5.54-3.32,1.46-2.49,2.38-5.24,3.26-7.97,1.57-4.91,2.97-9.88,5.26-14.54,.56-1.13,1.17-2.28,2.43-2.06,1.26,.22,1.46,1.64,1.65,2.79,.16,.97,.27,1.95,.35,2.92,.22,2.8,.11,5.61-.38,8.41,0,0,0,0,0,0,0,0,0,0,0,0-1.54,3.6-3.14,7.18-4.59,10.82-1.5,3.73-3.71,6.71-7.53,8.36-7.75,3.36-15.88,5.19-24.21,6.29-.49-.17-.81-.03-.96,.48-.36,.02-.71,.03-1.07,.05,1.24-2.4,3.45-3.71,5.66-4.98Z"/>
      <g>
        <path class="cls-1" d="M727.81,147.4c.02,3.3,.18,6.57,1.64,9.67,.65,.01,1.29,.01,1.94,.01,0,0,0,0,0,0-.65,0-1.29,0-1.94-.01-1.46-3.1-1.63-6.38-1.64-9.67Z"/>
        <path class="cls-1" d="M703.15,110.73c.3,.12,.61,.45,.98,.97,1.3,1.84,2.56,3.72,3.94,5.5-1.38-1.78-2.64-3.66-3.94-5.5-.37-.53-.69-.85-.98-.97Z"/>
        <path class="cls-1" d="M756.5,213.63c.19-.33,.55-.51,.97-.59-.42,.07-.78,.25-.97,.59Z"/>
        <path class="cls-1" d="M758.76,213.7c-.21-.15-.4-.28-.58-.4,.2,.13,.39,.26,.58,.4Z"/>
        <path class="cls-1" d="M696.59,132.42c.03-.3,.11-.6,.26-.9,.37-.73,.65-1.47,.85-2.21-.2,.74-.48,1.48-.85,2.21-.15,.29-.23,.59-.26,.9Z"/>
        <path class="cls-1" d="M722.72,126.84c-.66-.04-1.31-.12-1.95-.25,.64,.13,1.3,.2,1.95,.25Z"/>
        <path class="cls-1" d="M728.32,127.2c-.11-.14-.27-.22-.44-.27,.18,.05,.33,.13,.44,.27Z"/>
        <path class="cls-1" d="M707.96,151.39c.95,1.68,.94,3.42,.73,5.18,.21-1.76,.22-3.5-.73-5.18-1.85,.29-3.09-.4-4.05-1.47,.96,1.07,2.2,1.77,4.05,1.47Z"/>
        <path class="cls-1" d="M762.15,216.51c.06,.04,.12,.09,.18,.14,.42,.29,.74,.62,.95,1.02-.3-.34-.69-.74-1.13-1.16Z"/>
        <path class="cls-1" d="M696.59,132.42c0,.1-.01,.2-.01,.3,0-.1,0-.2,.01-.3Z"/>
        <path class="cls-1" d="M724.71,126.89c-.66,0-1.32,0-1.98-.05,.66,.04,1.32,.05,1.98,.05Z"/>
        <path class="cls-1" d="M691.25,209.21c-.08-.97-.19-1.95-.35-2.92,.16,.97,.27,1.95,.35,2.92Z"/>
        <path class="cls-1" d="M753.93,231.91c0,.09,0,.19,.02,.29-.01-.1-.02-.19-.02-.29h0Z"/>
        <path class="cls-1" d="M739.75,262.42h0c-.04-.26-.08-.52-.12-.77,.04,.26,.08,.52,.12,.77Z"/>
        <path class="cls-11" d="M764.67,169c-3.32-5.68-8.43-8.14-14.39-9.64-1.69-.43-9.35-1.93-11.11-2.01-2.58-.12-5.23-.71-7.77-.26-.65,0-1.29,0-1.94-.01-1.46-3.1-1.63-6.37-1.64-9.67,0-.76,0-1.52,0-2.28,0-2.44-.27-4.91,.82-7.23,1.59-3.38,0-6.73-.12-10.1,0-.27-.08-.46-.19-.6-.11-.14-.27-.22-.44-.27-.18-.05-.38-.06-.58-.07s-.41,0-.6,0c-.33,0-.66,0-.99,.01-.33,0-.66,0-.99,0-.66,0-1.32,0-1.98-.05-.66-.04-1.31-.12-1.95-.25-.64-.13-1.28-.31-1.91-.56-4.49-1.82-7.87-5.07-10.79-8.83-1.38-1.78-2.64-3.66-3.94-5.5-.37-.53-.69-.85-.98-.97-.1-.04-.2-.06-.29-.06-.19,0-.39,.1-.59,.29-.21,.18-.42,.46-.66,.82-.54,.81-1.02,1.64-1.42,2.5-.4,.85-.74,1.73-1.01,2.62-.27,.89-.47,1.81-.61,2.74s-.22,1.88-.23,2.85c-.04,2.32-.02,4.61-.63,6.84-.2,.74-.48,1.48-.85,2.21-.15,.29-.23,.59-.26,.9,0,.1-.01,.2-.01,.3,0,.2,.03,.41,.07,.61,.12,.61,.37,1.23,.62,1.84,.08,.2,.17,.4,.24,.6,.08,.2,.15,.39,.21,.59,.3,.98,.62,1.96,.95,2.93,.67,1.94,1.42,3.86,2.3,5.71,.44,.93,.91,1.84,1.43,2.73,.15,.26,.3,.52,.46,.77,.16,.25,.32,.5,.49,.74s.35,.47,.55,.68c.96,1.07,2.2,1.77,4.05,1.47,.95,1.68,.94,3.42,.73,5.18-.07,.59-.16,1.17-.25,1.76,0,.38,0,.76,0,1.14,.4,.61,.79,1.24,1.24,1.8-.03-.03-.06-.05-.08-.07-2.14-2.11-2.55-2.17-5.41-1.04-2.2,.87-4.52,1.3-6.85,1.62-.11,.04-.24,.08-.37,.12-.19-.55-.38-1.1-.54-1.66-.32-1.19-6.72-32.44-5.05-43.72,1.35-9.17,1.95-21.71,26.52-21.11,21.87,.76,25.15,13.46,28.55,21.64,3.41,8.18-1.72,22.53-.08,28.13s2.02,8.62,7.06,11.73,9.17,4.87,12.77,9.36c3.25,4.04,5.57,10.84,6.06,13.37-.62-.66-1.23-1.29-1.41-1.55-2.1-3-4.34-5.96-6.17-9.09Z"/>
        <path class="cls-9" d="M729.45,157.07c.65,.01,1.29,.01,1.94,.01-.9,.16-1.78,.45-2.65,.93-.12,.07-.24,.13-.37,.2,.41-.33,.77-.7,1.07-1.15Z"/>
        <path class="cls-8" d="M765.69,276.93s.04,.03,.04,.03-.04-.03-.04-.03Z"/>
        <path class="cls-10" d="M736.34,157.18c-1.64-.1-3.29-.09-4.94-.09,0,0,0,0,0,0,1.65,0,3.3,0,4.94,.09Z"/>
        <path class="cls-10" d="M691.25,209.21c.22,2.8,.11,5.61-.38,8.41,0,0,0,0,0,0,.49-2.8,.61-5.61,.38-8.41Z"/>
        <path class="cls-16" d="M634.48,237.33c1.46-1.09,3.05-1.94,4.63-2.8,8.26-4.49,16.95-8.08,25.31-12.36,1.95-1,4.28-1.76,5.11-4.16,1.85-5.35,3.64-10.72,5.45-16.08,2.44-7.24,4.85-14.49,7.31-21.73,.99-2.92,3.07-11.76,6.3-14.14,.3-.34,2.58-1.89,3.51-2.29,.94-.39,.47,.02,1.92-.86,.35-.15,1.57-.72,1.57-.72,0,0,.77-.14,1.36-.31,.14-.04,.27-.08,.37-.12,2.34-.32,4.65-.76,6.85-1.62,2.86-1.13,3.27-1.08,5.41,1.04,.03,.03,.06,.05,.08,.07,.31,.4,.65,.76,1.04,1.07,.38,.29,.8,.53,1.29,.68,.24,.08,.51,.13,.79,.16,2.61,.28,5.08,.2,7.66-.96,2.44-1.09,4.86-2.17,7.19-3.49,.27-.16,.52-.33,.75-.51,.12-.07,.24-.13,.37-.2,.86-.49,1.75-.77,2.65-.93,1.65,0,3.3,0,4.94,.09-1.64-.1-3.29-.09-4.94-.09,2.54-.45,5.19,.14,7.77,.26,1.76,.08,9.42,1.59,11.11,2.01,5.97,1.5,11.08,3.95,14.39,9.64,1.83,3.13,4.07,6.09,6.17,9.09,.18,.26,.8,.89,1.41,1.55,.6,.63,1.2,1.29,1.41,1.64,5.53,9.15,11.68,17.9,17.08,27.14,2.99,5.12,5.86,10.3,8.71,15.49,1.54,2.8,1.92,5.86,1.26,8.85-3.38,15.2-8.22,29.85-17.11,42.86-2.74,1.63-5.51,1.62-8.36,.23-.97-.47-2.03-.73-3.06-1.09-1.14-2.39-.12-4.72,.39-6.97,2.09-9.22,3.7-18.54,5.6-27.8,.36-1.75,.41-3.58,.8-5.34,.28-1.24-.15-2.39-.94-3.24-4.38-4.65-9.22-8.8-14.15-12.83-.01-.18-.25-.52-.61-.93-.21-.4-.53-.73-.95-1.02-.06-.04-.12-.09-.18-.14-1.04-.98-2.35-2.07-3.39-2.81-.19-.14-.38-.27-.58-.4-.16-.11-.32-.2-.45-.28-.32-1.09-.97-.82-1.62-.37-2.84,1.94-4.95,4.67-7.12,7.23-3.49,4.12-6.39,8.66-8.56,13.66-1.16,2.68-1.88,5.49-2.02,8.3-.24,4.81,.05,9.62,.5,14.45,.17,1.79,.44,3.58,.72,5.35,.04,.26,.08,.52,.12,.77l-45.96-26.53c-.27-3.52-.66-7.03-1.27-10.51-.36-2.02-.61-4.07-.85-6.11-.08-.67-.13-1.29-.8-1.64,.49-2.8,.61-5.61,.38-8.41-.08-.97-.19-1.95-.35-2.92-.19-1.15-.39-2.56-1.65-2.79-1.26-.22-1.87,.93-2.43,2.06-2.29,4.66-3.69,9.63-5.26,14.54-.88,2.73-1.8,5.48-3.26,7.97-1.22,2.07-3.54,2.55-5.54,3.32-5.09,1.97-9.87,4.54-14.59,7.25-2.22,1.27-4.42,2.58-5.66,4.98-4.46,.52-8.83,1.74-13.36,1.72-2.78-.79-4.66-2.66-6.1-5.06-.07-1.25,.37-2.16,1.43-2.96Z"/>
        <path class="cls-11" d="M754.13,229.67c.57-5.21,1.88-10.31,2.23-15.55,.01-.19,.06-.35,.13-.48,.19-.33,.55-.51,.97-.59,.08-.01,.17-.02,.26-.03,.16,.09,.3,.18,.45,.28,.18,.12,.38,.25,.58,.4,1.18,.87,2.2,1.95,3.39,2.81,.44,.42,.83,.81,1.13,1.16,.12,.24,.22,.49,.24,.8,.12,.04,.27,.05,.37,.12-.61,1.77-1.92,3.27-2.93,4.81-2.1,3.19-3.99,6.55-6.97,9.08-.01-.1-.03-.19-.05-.29s-.02-.19-.02-.29c.05-.75,.11-1.49,.2-2.24Z"/>
        <path class="cls-9" d="M753.93,231.91c.05-.75,.11-1.49,.2-2.24-.08,.74-.15,1.49-.2,2.24h0Z"/>
        <path class="cls-9" d="M762.15,216.51c-1.19-.86-2.21-1.94-3.39-2.81,1.04,.74,2.35,1.83,3.39,2.81Z"/>
        <path class="cls-9" d="M758.18,213.29c-.15-.09-.3-.19-.45-.28,.13,.07,.29,.17,.45,.28Z"/>
        <path class="cls-9" d="M763.29,217.66c.36,.41,.59,.74,.61,.93-.09-.08-.24-.08-.37-.12-.02-.31-.12-.57-.24-.8Z"/>
        <path class="cls-5" d="M708.44,158.34c3.54-.12,6.45-1.76,9.08-3.93,2.6-2.14,4.59-4.81,6.25-7.73,.21-.38,.68-.69,.28-1.18-.47-.57-1.04-.25-1.36,.07-3.5,3.49-8.39,3.81-12.63,5.61-.62,.26-1.39,.15-2.1,.21-1.85,.29-3.09-.4-4.05-1.47-.19-.21-.37-.44-.55-.68s-.34-.49-.49-.74c-.16-.25-.31-.51-.46-.77-.51-.89-.99-1.8-1.43-2.73-.88-1.85-1.63-3.77-2.3-5.71-.33-.97-.65-1.95-.95-2.93-.06-.19-.13-.39-.21-.59-.08-.2-.16-.4-.24-.6-.25-.6-.51-1.22-.62-1.84-.04-.2-.06-.41-.07-.61,0-.1,0-.2,.01-.3,.03-.3,.11-.6,.26-.9,.37-.73,.65-1.47,.85-2.21,.61-2.23,.59-4.52,.63-6.84,.02-.97,.09-1.92,.23-2.85,.14-.93,.34-1.84,.61-2.74,.27-.89,.6-1.77,1.01-2.62,.4-.85,.88-1.69,1.42-2.5,.24-.36,.46-.63,.66-.82,.21-.18,.4-.28,.59-.29,.1,0,.19,.02,.29,.06,.3,.12,.61,.45,.98,.97,1.3,1.84,2.56,3.72,3.94,5.5,2.92,3.75,6.3,7.01,10.79,8.83,.63,.25,1.26,.43,1.91,.56s1.3,.2,1.95,.25c.66,.04,1.32,.05,1.98,.05,.33,0,.66,0,.99,0,.33,0,.66,0,.99-.01,.19,0,.4-.01,.6,0s.4,.02,.58,.07c.18,.05,.33,.13,.44,.27,.11,.14,.18,.33,.19,.6,.12,3.36,1.71,6.71,.12,10.1-1.09,2.31-.83,4.79-.82,7.23,0,.76,0,1.52,0,2.28,.02,3.3,.18,6.57,1.64,9.67-.3,.45-.66,.82-1.07,1.15-3.71,2.07-7.43,3.97-11.7,4.78-2.74,.52-5.03,.17-7.01-1.74-.44-.56-.84-1.19-1.24-1.8,0-.38,0-.76,0-1.14Z"/>
        <path class="cls-5" d="M702.86,148.5c.16,.25,.32,.5,.49,.74-.17-.24-.34-.49-.49-.74Z"/>
        <path class="cls-5" d="M697.27,135.17c.08,.2,.17,.4,.24,.6-.08-.2-.16-.4-.24-.6Z"/>
        <path class="cls-5" d="M725.7,126.88c.33,0,.66,0,.99-.01,.19,0,.4-.01,.6,0-.2,0-.41,0-.6,0-.33,0-.66,0-.99,.01Z"/>
        <path class="cls-5" d="M696.58,132.73c0,.2,.03,.41,.07,.61-.04-.2-.06-.41-.07-.61Z"/>
        <path class="cls-5" d="M698.68,139.29c.67,1.94,1.42,3.86,2.3,5.71-.88-1.85-1.63-3.77-2.3-5.71Z"/>
        <path class="cls-5" d="M700.18,114.27c-.4,.85-.74,1.73-1.01,2.62,.27-.89,.6-1.77,1.01-2.62Z"/>
        <path class="cls-5" d="M702.85,110.67c-.19,0-.39,.1-.59,.29,.21-.18,.4-.28,.59-.29Z"/>
        <path class="cls-5" d="M699.17,116.89c-.27,.89-.47,1.81-.61,2.74,.14-.93,.34-1.84,.61-2.74Z"/>
        <path class="cls-5" d="M716.68,163.01c4.26-.81,7.99-2.71,11.7-4.78-.23,.18-.47,.35-.75,.51-2.33,1.32-4.75,2.4-7.19,3.49-2.58,1.16-5.05,1.23-7.66,.96-.28-.03-.54-.08-.79-.16-.49-.15-.91-.39-1.29-.68-.39-.3-.73-.67-1.04-1.07,1.99,1.91,4.27,2.26,7.01,1.74Z"/>
        <path class="cls-5" d="M710.71,162.34c.38,.29,.8,.53,1.29,.68-.49-.15-.91-.39-1.29-.68Z"/>
        <path class="cls-6" d="M707.96,151.39c.7-.06,1.48,.05,2.1-.21,4.24-1.8,9.13-2.12,12.63-5.61,.32-.32,.9-.64,1.36-.07,.4,.49-.06,.8-.28,1.18-1.66,2.92-3.66,5.58-6.25,7.73-2.63,2.17-5.54,3.81-9.08,3.93,.09-.59,.18-1.18,.25-1.76,.21-1.76,.22-3.5-.73-5.18Z"/>
        <line class="cls-1" x1="663.01" y1="219.35" x2="690.87" y2="235.44"/>
      </g>
      <path class="cls-14" d="M738.91,256.29c-.45-4.83-.74-9.64-.5-14.45,.14-2.81,.86-5.63,2.02-8.3,2.16-5,5.07-9.54,8.56-13.66,2.18-2.57,4.28-5.29,7.12-7.23,.65-.44,1.3-.71,1.62,.37-.09,0-.18,.02-.26,.03-.42,.07-.78,.25-.97,.59-.07,.13-.12,.29-.13,.48-.35,5.24-1.66,10.35-2.23,15.55-.08,.74-.15,1.49-.2,2.24h0c0,.09,0,.19,.02,.29s.03,.19,.05,.29c-.42,1.03-.52,2.1-.57,3.21-.34,7.57,1.65,14.7,4.22,21.69,2.31,6.29,5.29,12.29,8.05,18.38,0,0,.04,.03,.04,.03,.1,.23-.93,.54-1.87,.54l-24.1-13.92c-.04-.26-.08-.52-.12-.77-.28-1.78-.55-3.56-.72-5.35Z"/>
      <path class="cls-15" d="M785.49,519.48s5-11.52,10.68-15.49c3.76-2.62,5.16-6.74,2.19-10.11-5.17-5.86-18.31-39.28-18.52-45.58-.99-29.53-17.31-28.91-24.15-58.08-1.6-6.84-2.24-17.82-5.99-24.08-3.64-6.07-1.37-14.75-2.81-21.52-3.61-10.53,17.77-17.84,16.49-28.7-1.67-14.17,.53-28.28,.05-42.45-7.64,1.78-15.04,4.23-22.89,5.44-13.55,2.08-26.93,1.25-40.34-1.74-4.96-1.11-9.88-2.52-15.02-2.77-.29,11.01-.58,22.02-.89,33.03-.04,1.33-.23,2.65-.35,3.98-.23,9.73-.42,19.46-.7,29.19-.78,26.73-1.53,53.47-2.44,80.19-.65,18.9-1.59,37.78-2.33,56.68-.16,4.13-1.19,8.64,.29,12.33,1.64,4.11-.76,5.58-3.08,7.41-7.18,5.65-16.76,5.98-25.38,6.8-1.83,.17-4.41,.89-5.97,3.2s-.53-.03,.61,4.14,36.92,5.32,43.42,5.77c6.49,.45,8.29-9.01,8.29-9.01-.06-.38-.07-.84-.05-1.42,.2-5.92,2.26-10.3,2.66-15.89,2.85-39.34,20.82-73.23,15.99-104.12,14,19.94,21.69,32.53,26.43,43.67,9.84,23.18,22.54,36.32,33.5,59.1,3.54,7.36,1.4,13.8-1.28,20.36-1.1,2.69-4.26,3.53-6.98,4.92-3.08,1.57-7.52,1.57-8.92,3.93s2.02,4.06,5.62,4.35,14.83,1.33,17.11,.41,4.78-3.94,4.78-3.94Z"/>
      <path class="cls-7" d="M777.51,282.19l-174.48-100.73h-17.75v77.3s-12.46-.09-15.55-.09c-15.89,0-28.77,12.88-28.77,28.77s12.88,28.77,28.77,28.77c3.09,0,15.55-.09,15.55-.09v66.81h0s58.5,33.78,58.5,33.78c-.02-.42-.03-1.27-.03-1.27l17.78,1.27c-.02-.42-.03-.85-.03-1.27,0-12.79,8.35-23.63,19.9-27.37,11.55,3.74,19.9,14.58,19.9,27.37,0,11.1-6.29,20.73-15.5,25.53l73.97,42.71h17.75v-201.47Z"/>
      <path class="cls-4" d="M409.07,462.84c3.9,11.27,14.59,19.36,27.19,19.36,3.1,0,6.08-.5,8.87-1.4,2.8,.91,5.78,1.4,8.87,1.4,15.89,0,28.77-12.88,28.77-28.77,0-10.62-5.76-19.89-14.32-24.88l65.46-37.79v-62.54h-17.75s-5.09,3.12-7.97,4.05c-11.55-3.74-19.9-14.58-19.9-27.37s8.35-23.63,19.9-27.37c2.88,.94,7.97,4.05,7.97,4.05h17.75v-100.15h-17.75l-181.27,104.66v209.31h17.75l56.43-32.58Z"/>
      <path class="cls-10" d="M694.88,484.91c0-15.89-12.88-28.77-28.77-28.77h-17.75c-12.31,0-22.81,7.74-26.91,18.62l-45.04-26h0s-17.75,0-17.75,0h0s-54.85,31.67-54.85,31.67c9.66,4.64,16.32,14.51,16.32,25.94,0,12.79-8.35,23.63-19.9,27.37-11.55-3.74-19.9-14.58-19.9-27.37,0-.74,.04-1.47,.09-2.2,0,0-17.8,.73-17.75,0l-86.62,50.01,182.6,105.42h17.75l182.6-105.42-77.69-44.85c8.14-5.08,13.56-14.11,13.56-24.42Z"/>
      <path class="cls-19" d="M569.73,258.66c5.73,0,11.07,1.68,15.55,4.57v-81.78s174.48,100.73,174.48,100.73v201.47s-73.97-42.71-73.97-42.71c9.21-4.8,15.5-14.42,15.5-25.53,0-15.89-12.88-28.77-28.77-28.77-15.89,0-28.77,12.88-28.77,28.77,0,.43,.01,.85,.03,1.27l-58.5-33.77h0v-71.29c-4.49,2.89-9.82,4.57-15.55,4.57-15.89,0-28.77-12.88-28.77-28.77,0-15.89,12.88-28.77,28.77-28.77Z"/>
      <path class="cls-17" d="M334.89,286.11l181.27-104.66v100.15c-4.74-3.43-10.55-5.46-16.85-5.46-15.89,0-28.77,12.88-28.77,28.77,0,15.89,12.88,28.77,28.77,28.77,6.29,0,12.11-2.03,16.85-5.46v62.54s-65.46,37.79-65.46,37.79c8.56,4.98,14.32,14.25,14.32,24.88,0,15.89-12.88,28.77-28.77,28.77-15.86,0-28.73-12.84-28.77-28.69l-72.6,41.91v-209.31Z"/>
      <path class="cls-5" d="M767.95,275.53c.45-.76,1.33-1.27,2.01-1.9,1.26,.44,2.57,.76,3.76,1.34,3.5,1.71,6.91,1.72,10.28-.28-.52,1.38-.9,2.82-1.71,4.1-.74,1.16-2.43,4.28-3.33,6.96-.81,2.4-2.12,4.43-4.07,6.04-2.59,2.12-6.71,2.16-8.11-.06-2.21-3.51-2.15-7.44-1.3-11.27,.34-1.52,1.44-3.19,2.48-4.92Z"/>
      <path class="cls-18" d="M462.68,504.17c-.05,.73-.09,1.46-.09,2.2,0,15.89,12.88,28.77,28.77,28.77,15.89,0,28.77-12.88,28.77-28.77,0-11.43-6.67-21.3-16.32-25.94l54.85-31.67h0s60.95,35.19,60.95,35.19c.51-15.44,13.18-27.81,28.75-27.81,15.89,0,28.77,12.88,28.77,28.77,0,10.3-5.42,19.33-13.56,24.42l77.69,44.85-182.6,105.42-182.6-105.42,86.62-50.01Z"/>
      <g>
        <g>
          <g>
            <path class="cls-11" d="M271.94,270.93c2.34-2.71,2.92-5.74,1.72-9.12-.37-1.03-.67-2.08-1-3.12-.35-1.11-.46-2.23,.7-2.91,1.09-.64,1.76,.32,2.53,.88,1,.73,1.6,2.68,3.12,1.85,1.26-.69,.63-2.43,.71-3.72,.07-1.09-.02-2.19,.06-3.28,.26-3.75,1.46-4.94,5.27-4.82,4.6,.15,9.2,.51,13.8,.78,1.85,.11,3.63-.15,5.36-.8,5.02-5.46,7.43-11.53,4.8-18.99-.75-2.14-1.76-2.8-3.99-2.3-5.92,1.32-11.83,.84-17.69-.57-4.8-1.15-9.63-1.45-14.44-.26-7.12,1.75-11.88,6.13-14.21,13.11-.95,2.85-.08,5.52,.85,8.17,3.12,8.86,7.64,17.03,12.42,25.08Z"/>
            <path class="cls-5" d="M394.06,357.5c2.41,2.53,4.46,2.05,6.73-.41,5.16-5.59,12.83-6.99,18.93-3.69,4.47,2.42,4.73,5.52,.41,8.13-4.35,2.62-7.51,6.99-12.72,8.35-2.65,.69-5.18,1.25-7.77-.1-1.98-1.04-2.93,.03-3.49,1.8l-2.1-14.08s0,0,0,0Z"/>
            <g>
              <path class="cls-1" d="M297.96,283.91c.1,0,.2,0,.3,0l-1.59,.22c.33-.16,.74-.25,1.29-.22Z"/>
              <path class="cls-5" d="M266.32,295.63c5.25-6.18,10.04-13.99,5.77-23.25-.19-.42-.11-.96-.15-1.44,2.34-2.71,2.92-5.74,1.72-9.12-.37-1.03-.67-2.08-1-3.12-.35-1.11-.46-2.23,.7-2.91,1.09-.64,1.76,.32,2.53,.88,1,.73,1.6,2.68,3.12,1.85,1.26-.69,.63-2.43,.71-3.72,.07-1.09-.02-2.19,.06-3.28,.26-3.75,1.46-4.94,5.27-4.82,4.6,.15,9.2,.51,13.8,.78,1.85,.11,3.63-.15,5.36-.8,.44,2.76,1.06,5.5,1.27,8.27,.58,7.65,.66,15.31-1.14,22.85-.62,2.6-1.51,5.01-3.93,5.82l-2.14,.29c-.1,0-.2,0-.3,0-.55-.03-.96,.05-1.29,.22h-.02s-12.95-4.47-14.36-7.01c-1.41-2.54-.22,8.33,4.52,11.58,2.32,1.59,5.67,2.91,8.5,3.84-.23,2.32-.58,4.63-1.05,6.92-.38,1.87,.17,3.19,1.87,3.81,0,0-14.37-3.43-20.96-3.43s-10.95,.78-13.19,1.61c1.3-1.99,2.74-3.93,4.34-5.81Z"/>
              <path class="cls-6" d="M282.29,277.12c1.41,2.54,14.36,7.01,14.36,7.01h.02c-.86,.43-1.04,1.46-1.05,2.66-.01,1.92-.12,3.83-.31,5.74-2.83-.93-6.19-2.25-8.5-3.84-4.73-3.25-5.93-14.12-4.52-11.58Z"/>
              <path class="cls-5" d="M298.26,283.91l2.14-.29c-.61,.21-1.32,.31-2.14,.29Z"/>
            </g>
          </g>
          <path class="cls-12" d="M246.63,578.86c7.44-12.42,19.1-68.72,19.1-68.72v72.64c-5.46,12.13-10.6,23.91-16.4,35.39-11.77,23.29-23.98,46.34-36.73,69.1l-10.3-5.25s36.89-90.73,44.34-103.15Z"/>
          <path class="cls-13" d="M188.61,691c5.65-5.72,4.8-12.77,5.69-19.56,4.16-31.83,8.53-63.61,18.33-94.34,2.3-7.21,5.45-13.98,9.77-20.29,4.19-6.13,7.14-12.96,9.27-20.11,4.64-10.95,7.75-22.38,10.17-33.98,3.16-15.13,2.54-30.66,4.54-45.92,7.22,2.85,14.14,6.39,21.63,8.64,12.93,3.89,26.01,4.61,39.35,2.98,4.93-.6,9.87-1.54,14.89-1.19-.91,11.94-1.82,23.89-2.71,35.83-.11,1.44-.06,2.9-.09,4.35-.83,10.55-1.7,21.1-2.48,31.66-2.13,29.01-4.31,58.02-6.31,87.03-1.42,20.52-2.55,41.06-3.87,61.59-.29,4.49,.22,9.49-1.62,13.3-2.04,4.25,.14,6.13,2.19,8.38,6.36,6.97,15.63,8.49,23.91,10.42,1.76,.41,4.18,1.5,5.45,4.18,1.27,2.68,.51,.03-1.04,4.4-1.55,4.38-36.42,1.31-42.78,1.01-6.35-.3-7.07-10.75-7.07-10.75,.1-.4,.16-.9,.2-1.53,.45-6.43-1.94-12.02-3.42-17.93-8.17-32.64-13.63-65.71-15.32-99.35-.26-5.1-.68-10.2-1.05-15.3-.03-.44-.25-.87-.52-1.77v-72.64s-11.66,56.3-19.1,68.72c-7.44,12.42-44.34,103.15-44.34,103.15l10.3,5.25c-.33,.58-.65,1.17-.98,1.75-4.23,7.53-2.85,14.76-.96,22.17,.78,3.05,3.76,4.33,6.25,6.16,2.82,2.07,7.13,2.61,8.24,5.33,1.11,2.72-2.41,4.15-5.93,4.02-3.52-.12-14.54-.35-16.66-1.62-2.12-1.27-4.21-4.84-4.21-4.84,0,0-3.61-13.06-8.7-18.04-3.37-3.29-4.28-7.91-1.03-11.2Z"/>
          <path class="cls-26" d="M246.65,453.89c.4-4.6,.5-9.23,.86-13.83,1.2-15.42,1.65-30.87,.92-46.3-1.04-21.9-1.46-43.73,3.13-65.34,1.69-7.96,4.01-15.53,7.8-22.57,.8-1.49,1.67-2.97,2.62-4.41,2.24-.83,6.61-1.61,13.19-1.61s20.96,3.43,20.96,3.43c1.7,.62,3.16,1.53,4.5,2.59,2.33,1.85,4.26,4.16,6.34,6.29,.99,1.01,1.98,1.8,3.31,2.07,2.31,.46,27.08,34.75,27.08,34.75,0,0,2.75,5.07,8.73,5.46,15.27,.99,30.53,2.15,45.8,3.22,.71,.05,1.44-.08,2.16-.13l2.1,14.08c-16.37,3.61-32.88,6.34-49.54,8.15-6.88-.38-13.84,.84-20.13-1.2,0,0-19.04-7.17-20.63-10.56-1.28-2.71-.51,72.76-.15,103.16-11.91,1.01-23.62,.08-35.22-3.4-7.49-2.25-14.41-5.8-21.63-8.64-1.2-1.52-2.39-2.96-2.19-5.18Z"/>
        </g>
        <path class="cls-27" d="M305.85,367.97c1.6,3.39,20.63,10.56,20.63,10.56,0,7.12-.21,14.24,.04,21.34,.71,20.28,.66,40.55,.46,60.83-.02,1.58-.14,3.17,0,4.73,.17,1.94-.5,3.27-2.26,4.08-5.02-.35-9.95,.59-14.89,1.19-1.38,.17-2.76,.3-4.13,.42-.36-30.39-1.12-105.86,.15-103.16Z"/>
      </g>
      <g>
        <g>
          <path class="cls-5" d="M672.16,593.32c5.99-1.16,10.65,.49,13.52,6.23,.29,.58,1.43,.74,2.18,1.09,.17,1.71-.08,3.38-.4,5.07-.59,3.14-2.43,4.55-5.59,4.61-2.55,.04-5.09,.26-7.63,.49-4.89,.44-8.54-1.46-10.74-5.69,4.23-2.95,5.72-7.9,8.66-11.8Z"/>
          <path class="cls-11" d="M625.42,469.62c2.65-3.53,5.81-6.41,9.66-8.72,9-5.4,11.36-12.32,8.54-24.26-.5-2.1-.53-3.14,2.22-1.91-.86-3.45-4.88-4.03-5.27-7.41-.35-2.98-.83-6.01-3.13-8.37-.44,1.51,.88,2.9,0,4.49-8.54-9.01-18.84-8.17-29.49-5.05-1.87,.55-3.71,1.22-5.51,1.94-3.84,1.53-7.56,1.78-11.14-.99-1.38,8.1,1.44,14.14,8.02,18.54,3.19,1.49,6.25,3.39,9.58,4.38,5.61,1.68,8.88,4.74,8.53,10.91-.12,2.23,.66,3.33,3.05,2.08,1.88-.98,3.64-.44,4.95,1.02,1.31,1.46,.31,2.97-.38,4.39-.32,.65-.65,1.31-1.07,1.91-1.97,2.86-1.5,5.2,1.43,7.05Z"/>
          <path class="cls-5" d="M542.51,632.35c-6.1-.32-10.48,1.96-12.53,8.04-.21,.62-1.32,.93-2.01,1.38,.07,1.72,.55,3.34,1.1,4.97,1.02,3.02,3.04,4.17,6.17,3.79,2.53-.31,5.08-.45,7.62-.57,4.91-.24,8.25-2.63,9.85-7.12-4.59-2.34-6.76-7.03-10.21-10.48Z"/>
          <g>
            <path class="cls-1" d="M598.64,475.46c.79,.04,1.52,.15,2.19,.31-.79-.04-1.53-.14-2.19-.31Z"/>
            <path class="cls-5" d="M618.14,467.34s-1.87,1.55-4.68,4.57c-2.38,2.56-8.26,4.1-12.62,3.86-.67-.16-1.4-.27-2.19-.31-.33-.08-.64-.12-.95-.15-2.19-.58-2.93-2.76-3.24-5.02-1.25-9.14,.05-18.11,2.03-27,.44-1.98,1.24-3.94,2.83-5.41,3.19,1.49,6.25,3.39,9.58,4.38,5.61,1.68,8.88,4.74,8.53,10.91-.12,2.23,.66,3.33,3.05,2.08,1.88-.98,3.64-.44,4.95,1.02,1.31,1.46,.31,2.97-.38,4.39-.32,.65-.65,1.31-1.07,1.91-1.97,2.86-1.5,5.2,1.43,7.05,1.51,5.57,4.97,10.12,7.92,14.93-3.51,2.09-7.03,4.15-10.52,6.27-4.59,2.77-9.35,4.91-14.92,4.22,2.31-4.08-.98-7.63-1.13-11.52-.01-.3-.03-.59-.06-.88,2.38-1.68,5.29-3.79,7.13-5.38,3.56-3.08,4.31-9.92,4.31-9.92Z"/>
            <path class="cls-6" d="M600.83,475.77c4.37,.25,10.25-1.29,12.62-3.86,2.8-3.03,4.68-4.57,4.68-4.57,0,0-.74,6.84-4.31,9.92-1.84,1.59-4.75,3.71-7.13,5.38-.39-3.65-2.32-6.05-5.86-6.88Z"/>
            <path class="cls-5" d="M597.7,475.31c.31,.02,.62,.07,.95,.15-.34-.02-.66-.07-.95-.15Z"/>
          </g>
        </g>
        <path class="cls-25" d="M611.83,575.47s1.49-1.8,5.09-2.05,4.05,6.51,4.05,6.51c0,0,.26,26.21-1.46,58.78-.21,4.02-.45,8.13-.73,12.31-8.19-.14-17.14-1.54-23-3.35,.02-.18,.04-.36,.07-.53,.01-.1,.06-.65,.12-1.55,.5-7.03,2.16-35.64-2.05-40.71-.35-.12-.7-.23-1.04-.35-2.29,2.54-4.49,5.16-6.88,7.59-8.69,8.84-17.29,17.77-26.42,26.17-.96,.88-2.16,1.61-2.61,2.96-1.43,.49-2.35,2.33-4.24,1.58-1.54-.78-2.8-1.83-3.93-3.01l63.05-64.35Z"/>
        <path class="cls-24" d="M552.61,614.3c11.47-20.32,24.44-39.74,36.43-59.76,1.77-2.96,1.59-5.98,1.51-9.13-.19-7.25-1.1-14.5-.26-21.77,2.88-9.67,6.39-19.02,13.66-26.44,1.13-1.15,2.21-2.23,3.96-2.17,5.57,.69,10.33-1.45,14.92-4.22,3.5-2.11,7.02-4.18,10.52-6.27,1.64-.44,2.79,.58,3.97,1.4,4.64,3.22,8.6,7.14,11.99,11.65,8.96,11.94,13.9,25.64,17.02,40.02,6.14,28.31,6.06,56.94,4.04,85.66-.01,.21-.05,.41-.1,.6-.35,1.37-1.43,2.42-1.53,3.93-2.61,1.79-32.26,21.95-42.83,22.96-2.23,.21-4.64,.28-7.12,.24,.28-4.17,.52-8.29,.73-12.31,1.72-32.56,1.46-58.78,1.46-58.78,0,0-.44-6.76-4.05-6.51s-5.09,2.05-5.09,2.05l-63.05,64.35c-2.25-2.34-3.98-5.18-6.27-7.47,2.32-6.6,6.71-12.05,10.1-18.05Z"/>
        <g>
          <g>
            <path class="cls-20" d="M675,859.69l.93-.5c-.33,.2-.64,.36-.93,.5Z"/>
            <path class="cls-21" d="M535.08,872.25c3.44-3.04,7.72-4,12.11-4.44,7.24-.72,13.73-3.09,19.05-8.19,.55-.53,2.04-1.21,.94-1.97l3.68-.26,8.63-30.6s16.99-48.73,29.68-102.26c5.04-21.27,7.94-48.46,9.6-73.52,2.48,.04,4.89-.03,7.12-.24,10.57-1.01,40.22-21.17,42.83-22.96-.02,.37,0,.76,.12,1.19,1.77,6.54,1.26,13.27,.64,19.94-1.58,16.99-6.83,33.08-12.21,49.13-3.36,10.03-7.14,19.96-8.14,30.62-.46,4.92-.21,9.76,2.11,14.24,13.82,26.68,35.33,75,44.7,103.48,.26,.78,.7,2.17,.42,2.36-3.09,2.18-.5,3.86,.33,5.72,.79,1.77,1.33,3.67,2.23,5.38,1.27,2.43,2.69,7.47,0,8.37-2.68,.89-35.08,11.74-35.08,11.74,0,0-1.51-.06-1.66-1.03-.59-3.91,1.53-6.3,4.9-8.05,6.46-3.35,8.53-6.17,8.82-11.72l4.36-3.64-52.71-99.67-5.76,22.75c-.32,.13-.68,.18-.71,.31-5.96,24.42-16.54,46.96-27.99,69.14-.28,.54-.48,1.11-.71,1.67-1.4,2.42-2.79,4.83-4.19,7.25-.43,.74-.69,1.89-1.32,2.13-4.63,1.85-3.98,6.15-4.71,9.79-1.02,5.11-1.88,10.26-4.14,15.68l-4.59,1.67c-4.93-2.5-9.28-4.34-13.99-5.24-7.65-1.46-15.31-2.81-22.96-4.26-1.02-.19-2.51,.12-2.93-1.03-.5-1.39,.51-2.63,1.49-3.49Z"/>
          </g>
          <path class="cls-22" d="M609.18,724.53c-12.69,53.53-29.68,102.26-29.68,102.26l-8.63,30.6-3.68,.26c-.07-.05-.14-.09-.23-.14-4.82-2.61-2.13-6.55-2.07-10.04,.45-1.88,.97-3.75,1.35-5.65,3.72-18.61,7.03-37.29,10.13-56.01,7.58-45.89,13.79-91.98,19.41-138.15,5.86,1.81,14.81,3.21,23,3.35-1.66,25.06-4.56,52.25-9.6,73.52Z"/>
          <path class="cls-23" d="M680.29,855.56l-4.36,3.64-.93,.5c-3.8,1.75-4.8-1.65-6.41-4.2-11.88-18.89-35.56-57.54-46.76-76.85l5.76-22.75,52.71,99.67Z"/>
        </g>
      </g>
    </g>
  </g>
</svg>