<?xml version="1.0" encoding="utf-8"?>
<svg version="1.1" id="Layer_1" xmlns="http://www.w3.org/2000/svg" xmlns:xlink="http://www.w3.org/1999/xlink" x="0px" y="0px"
	 viewBox="0 0 1920 1080" style="enable-background:new 0 0 1920 1080;" xml:space="preserve">
<style type="text/css">
	.dooboolabNavy{fill:#393D7A;}
	.dooboolabGreen{fill:#00FACB;}
	.dooboolabPurple{fill:#B446BF;}
	.whiteBox{fill:#FFFFFF;}
	.text{fill:#231F20;}
	.whiteLine{fill:none;stroke:#FFFFFF;stroke-width:20;stroke-miterlimit:10;}
	#logoSymbol{transform-origin:center;}
	#logoText{transform-origin:center;}
</style>

<clipPath id="clipPathFull">
	<rect width="1920" height="1080"/>
</clipPath>
<rect>
    <animate id="o1" begin="0;o1.end" dur="5s"
    attributeName="visibility" from="hide" to="hide"/>
</rect>
<rect id="background" class="dooboolabNavy" width="1920" height="1080"/>
<g id="content">
	<g id="boxGroup" clip-path="url(#clipPathFull)">
		<rect id="leftSquare" class="dooboolabGreen" width="960"/>
		<animate xlink:href="#leftSquare" attributeName="height" attributeType="XML" dur="0.7s" begin="o1.begin" fill="freeze" values="0; 597; 805; 936; 1019; 1065; 1080 "/>
		<animate xlink:href="#leftSquare" attributeName="height" begin="o1.begin+4s" dur="0.2s" fill="freeze" from="0" to="0"/>
		<rect id="rightSquare" x="960" class="dooboolabPurple" width="960"/>
		<animate xlink:href="#rightSquare" attributeName="y" attributeType="XML" dur="0.8s" begin="o1.begin" fill="freeze" values="1080; 483; 275; 144; 61; 15; 0"/>
		<animate xlink:href="#rightSquare" attributeName="height" attributeType="XML" dur="0.7s" begin="o1.begin" fill="freeze" values="0; 597; 805; 936; 1019; 1065; 1080"/>
		<animate xlink:href="#rightSquare" attributeName="height" begin="o1.begin+4s" dur="0.2s" fill="freeze" from="0" to="0"/>
	</g>
	<g id="circleGroup" clip-path="url(#clipPathFull)">
		<circle id="centerCircle" class="whiteBox" cx="960" cy="540"/>
		<animate xlink:href="#centerCircle" attributeName="r" attributeType="XML" dur="0.6s" begin="o1.begin+0.5s" fill="freeze" values="0; 177; 239; 277; 302; 316; 320"/>
		<animate xlink:href="#centerCircle" attributeName="r" attributeType="XML" dur="0.6s" begin="o1.begin+2s" fill="freeze" values="320; 343; 416; 545; 748; 1071; 2000"/>
		<animate xlink:href="#centerCircle" attributeName="r" begin="o1.begin+4s" dur="0.2s" fill="freeze" from="0" to="0"/>
		<circle id="centerCircleLine" class="whiteLine" cx="960" cy="540"/>
		<animate xlink:href="#centerCircleLine" attributeName="r" attributeType="XML" dur="0.6s" begin="o1.begin+0.5s" fill="freeze" values="2000; 1115; 807; 614; 491; 422; 400"/>
		<animate xlink:href="#centerCircleLine" attributeName="opacity" begin="o1.begin" dur="0s" fill="freeze" from="1" to="0"/>
		<animate xlink:href="#centerCircleLine" attributeName="r" begin="o1.begin+4s" dur="0.2s" fill="freeze" from="0" to="0"/>
	</g>
	<g id="logoText">
		<g id="logoText" clip-path="url(#clipPathFull)">
			<path id="logoText1" class="text" d="M802.7,591.7h6.8v70.2l2.8,2.6l-5,4.8l-3.3-3.3c-2.2,1.1-4.5,1.9-7,2.3c-2.5,0.4-4.4,0.7-5.9,0.7
				c-2.1,0-4.1-0.4-5.9-1.2c-1.8-0.8-3.4-1.9-4.7-3.4c-1.4-1.4-2.4-3.1-3.2-5.1c-0.8-1.9-1.2-4-1.2-6.2v-25.3c0-2.2,0.4-4.3,1.2-6.2
				c0.8-1.9,1.8-3.6,3.2-5c1.4-1.4,2.9-2.6,4.7-3.4c1.8-0.8,3.8-1.3,5.9-1.3c1.1,0,2.7,0.1,4.7,0.4c2,0.3,4.3,1,6.9,2.3V591.7z
				M802.6,622.5c-2.2-1.3-4.4-2.2-6.6-2.8c-2.2-0.5-3.8-0.8-4.9-0.8c-2.3,0-4.2,0.8-5.8,2.5c-1.6,1.7-2.4,3.7-2.4,6.1v26.1
				c0,2.3,0.8,4.3,2.4,6c1.6,1.7,3.5,2.5,5.7,2.5c0.7,0,1.6-0.1,2.7-0.3c1.1-0.2,2.3-0.4,3.5-0.7c1.2-0.3,2.3-0.6,3.3-1
				c1-0.4,1.7-0.9,2-1.4V622.5z"/>
			<path id="logoText2" class="text" d="M856.3,652.7c0,3.5-0.6,6.2-1.9,8.3c-1.2,2.1-2.8,3.7-4.6,4.9c-1.8,1.2-3.7,1.9-5.6,2.3
				c-1.9,0.4-3.6,0.5-5,0.5c-1.4,0-3.1-0.2-5.1-0.5c-2-0.4-3.9-1.1-5.7-2.3c-1.8-1.2-3.3-2.8-4.6-4.9c-1.2-2.1-1.9-4.9-1.9-8.3v-24.8
				c0-3.4,0.6-6.2,1.9-8.3c1.2-2.1,2.8-3.7,4.6-4.8c1.8-1.1,3.7-1.9,5.7-2.3c2-0.4,3.7-0.6,5.1-0.6c1.4,0,3.1,0.2,5,0.6
				c1.9,0.4,3.8,1.1,5.6,2.3c1.8,1.1,3.3,2.8,4.6,4.8c1.2,2.1,1.9,4.9,1.9,8.3V652.7z M849.9,628.7c0-2.2-0.4-3.9-1.2-5.2
				c-0.8-1.3-1.7-2.3-2.9-3c-1.1-0.7-2.3-1.2-3.5-1.4c-1.2-0.2-2.3-0.3-3.1-0.3s-1.9,0.1-3.2,0.3c-1.2,0.2-2.4,0.7-3.6,1.4
				c-1.1,0.7-2.1,1.7-2.9,3c-0.8,1.3-1.2,3-1.2,5.2v23.2c0,2.2,0.4,4,1.2,5.3c0.8,1.3,1.8,2.3,2.9,3c1.1,0.7,2.3,1.2,3.6,1.4
				c1.2,0.3,2.3,0.4,3.2,0.4s1.9-0.1,3.1-0.4c1.2-0.3,2.4-0.7,3.5-1.4c1.1-0.7,2.1-1.7,2.9-3s1.2-3.1,1.2-5.3V628.7z"/>
			<path id="logoText3" class="text" d="M902.2,652.7c0,3.5-0.6,6.2-1.9,8.3c-1.2,2.1-2.8,3.7-4.6,4.9c-1.8,1.2-3.7,1.9-5.6,2.3
				c-1.9,0.4-3.6,0.5-5,0.5c-1.4,0-3.1-0.2-5.1-0.5c-2-0.4-3.9-1.1-5.7-2.3c-1.8-1.2-3.3-2.8-4.6-4.9c-1.2-2.1-1.9-4.9-1.9-8.3v-24.8
				c0-3.4,0.6-6.2,1.9-8.3c1.2-2.1,2.8-3.7,4.6-4.8c1.8-1.1,3.7-1.9,5.7-2.3c2-0.4,3.7-0.6,5.1-0.6c1.4,0,3.1,0.2,5,0.6
				c1.9,0.4,3.8,1.1,5.6,2.3c1.8,1.1,3.3,2.8,4.6,4.8c1.2,2.1,1.9,4.9,1.9,8.3V652.7z M895.8,628.7c0-2.2-0.4-3.9-1.2-5.2
				c-0.8-1.3-1.7-2.3-2.9-3c-1.1-0.7-2.3-1.2-3.5-1.4c-1.2-0.2-2.3-0.3-3.1-0.3s-1.9,0.1-3.2,0.3c-1.2,0.2-2.4,0.7-3.6,1.4
				c-1.1,0.7-2.1,1.7-2.9,3c-0.8,1.3-1.2,3-1.2,5.2v23.2c0,2.2,0.4,4,1.2,5.3c0.8,1.3,1.8,2.3,2.9,3c1.1,0.7,2.3,1.2,3.6,1.4
				c1.2,0.3,2.3,0.4,3.2,0.4s1.9-0.1,3.1-0.4c1.2-0.3,2.4-0.7,3.5-1.4c1.1-0.7,2.1-1.7,2.9-3s1.2-3.1,1.2-5.3V628.7z"/>
			<path id="logoText4" class="text" d="M921.7,614.6c2.8-1.5,5.1-2.3,7-2.4c1.9-0.1,3.4-0.2,4.6-0.2c2.1,0,4,0.4,5.8,1.3c1.8,0.8,3.4,2,4.8,3.4
				c1.4,1.4,2.4,3.1,3.2,5c0.8,1.9,1.2,4,1.2,6.2v25.3c0,2.2-0.4,4.3-1.2,6.2c-0.8,1.9-1.8,3.6-3.2,5.1c-1.4,1.4-3,2.6-4.8,3.4
				c-1.8,0.8-3.8,1.2-5.8,1.2c-1.5,0-3.5-0.2-5.8-0.6c-2.4-0.4-4.7-1.2-7.2-2.5c-0.5,0.4-1,0.8-1.6,1.4c-0.6,0.6-1,1.1-1.4,1.4
				l-4.8-4.8l2.3-2.4v-69.9h6.9V614.6z M921.8,658.6c0.2,0.5,0.8,1,1.9,1.4c1,0.4,2.1,0.8,3.4,1.1c1.2,0.3,2.4,0.5,3.6,0.7
				c1.2,0.1,2.1,0.2,2.8,0.2c2.2,0,4.1-0.8,5.7-2.5c1.6-1.7,2.4-3.7,2.4-6v-26.1c0-2.3-0.8-4.3-2.4-6c-1.6-1.7-3.5-2.5-5.8-2.5
				c-0.6,0-1.4,0.1-2.3,0.2c-1,0.1-2,0.3-3,0.6c-1.1,0.3-2.1,0.6-3.2,1s-2.1,0.9-2.9,1.4V658.6z"/>
			<path id="logoText5" class="text" d="M994.1,652.7c0,3.5-0.6,6.2-1.9,8.3s-2.8,3.7-4.6,4.9c-1.8,1.2-3.7,1.9-5.6,2.3c-1.9,0.4-3.6,0.5-5,0.5
				c-1.4,0-3.1-0.2-5.1-0.5s-3.9-1.1-5.7-2.3c-1.8-1.2-3.3-2.8-4.6-4.9c-1.2-2.1-1.9-4.9-1.9-8.3v-24.8c0-3.4,0.6-6.2,1.9-8.3
				c1.2-2.1,2.8-3.7,4.6-4.8c1.8-1.1,3.7-1.9,5.7-2.3c2-0.4,3.7-0.6,5.1-0.6c1.4,0,3.1,0.2,5,0.6c1.9,0.4,3.8,1.1,5.6,2.3
				c1.8,1.1,3.3,2.8,4.6,4.8c1.2,2.1,1.9,4.9,1.9,8.3V652.7z M987.8,628.7c0-2.2-0.4-3.9-1.2-5.2c-0.8-1.3-1.7-2.3-2.9-3
				c-1.1-0.7-2.3-1.2-3.5-1.4c-1.2-0.2-2.3-0.3-3.1-0.3s-1.9,0.1-3.2,0.3c-1.2,0.2-2.4,0.7-3.6,1.4c-1.1,0.7-2.1,1.7-2.9,3
				c-0.8,1.3-1.2,3-1.2,5.2v23.2c0,2.2,0.4,4,1.2,5.3c0.8,1.3,1.8,2.3,2.9,3c1.1,0.7,2.3,1.2,3.6,1.4c1.2,0.3,2.3,0.4,3.2,0.4
				s1.9-0.1,3.1-0.4c1.2-0.3,2.4-0.7,3.5-1.4c1.1-0.7,2.1-1.7,2.9-3s1.2-3.1,1.2-5.3V628.7z"/>
			<path id="logoText6" class="text" d="M1040.1,652.7c0,3.5-0.6,6.2-1.9,8.3s-2.8,3.7-4.6,4.9c-1.8,1.2-3.7,1.9-5.6,2.3c-1.9,0.4-3.6,0.5-5,0.5
				c-1.4,0-3.1-0.2-5.1-0.5s-3.9-1.1-5.7-2.3c-1.8-1.2-3.3-2.8-4.6-4.9c-1.2-2.1-1.9-4.9-1.9-8.3v-24.8c0-3.4,0.6-6.2,1.9-8.3
				c1.2-2.1,2.8-3.7,4.6-4.8c1.8-1.1,3.7-1.9,5.7-2.3c2-0.4,3.7-0.6,5.1-0.6c1.4,0,3.1,0.2,5,0.6c1.9,0.4,3.8,1.1,5.6,2.3
				c1.8,1.1,3.3,2.8,4.6,4.8c1.2,2.1,1.9,4.9,1.9,8.3V652.7z M1033.7,628.7c0-2.2-0.4-3.9-1.2-5.2c-0.8-1.3-1.7-2.3-2.9-3
				c-1.1-0.7-2.3-1.2-3.5-1.4c-1.2-0.2-2.3-0.3-3.1-0.3s-1.9,0.1-3.2,0.3c-1.2,0.2-2.4,0.7-3.6,1.4c-1.1,0.7-2.1,1.7-2.9,3
				c-0.8,1.3-1.2,3-1.2,5.2v23.2c0,2.2,0.4,4,1.2,5.3c0.8,1.3,1.8,2.3,2.9,3c1.1,0.7,2.3,1.2,3.6,1.4c1.2,0.3,2.3,0.4,3.2,0.4
				s1.9-0.1,3.1-0.4c1.2-0.3,2.4-0.7,3.5-1.4c1.1-0.7,2.1-1.7,2.9-3s1.2-3.1,1.2-5.3V628.7z"/>
			<path id="logoText7" class="text" d="M1053.3,591.6h7v62.2c0,2.6,0.7,4.5,2,5.4c1.3,1,2.9,1.5,4.7,1.5h2.2v7.3h-2.8c-3.7,0-6.9-1.2-9.4-3.5
				c-2.5-2.3-3.8-6.1-3.8-11.3V591.6z"/>
			<path id="logoText8" class="text" d="M1108.1,661.8l2.4,2.2l-5,5l-3-3c-2.3,1.1-4.7,1.9-7.2,2.4c-2.5,0.5-4.4,0.8-5.7,0.8c-2.1,0-4.1-0.4-5.9-1.3
				c-1.8-0.8-3.4-2-4.7-3.5c-1.3-1.5-2.4-3.2-3.1-5.1c-0.8-1.9-1.2-4-1.2-6.2v-6.1c0-2.1,0.4-4.1,1.2-6.1c0.8-1.9,1.8-3.6,3.1-5
				s2.9-2.6,4.7-3.4c1.8-0.8,3.8-1.3,5.9-1.3c0.4,0,1.1,0,2,0.1c0.9,0,1.9,0.1,3,0.3c1.1,0.2,2.2,0.4,3.4,0.8c1.1,0.3,2.2,0.8,3.1,1.3
				v-2.3c0-1.5-0.3-3.1-0.8-4.6c-0.5-1.5-1.3-2.9-2.3-4.1c-1-1.2-2.1-2.1-3.4-2.9c-1.3-0.7-2.6-1.1-4-1.1c-0.5,0-1.5,0.2-3,0.6
				c-1.5,0.4-3.1,0.7-4.8,1.1c-1.9,0.5-4,1.1-6.4,1.7l-1.9-6.6c2.4-0.7,4.7-1.2,6.8-1.8c1.8-0.4,3.6-0.8,5.4-1.2
				c1.8-0.4,3-0.6,3.9-0.6c2.3,0,4.6,0.6,6.7,1.7c2.1,1.1,3.9,2.6,5.5,4.4c1.5,1.8,2.8,3.9,3.7,6.2c0.9,2.3,1.4,4.7,1.4,7.2
				L1108.1,661.8z M1101.2,641.4c0-0.1-0.3-0.3-0.9-0.6c-0.6-0.3-1.5-0.7-2.5-1c-1-0.4-2.2-0.7-3.6-1c-1.4-0.3-2.9-0.4-4.4-0.4
				c-2.3,0-4.2,0.8-5.8,2.5c-1.6,1.7-2.4,3.7-2.4,5.9v6.8c0,2.3,0.8,4.3,2.4,6c1.6,1.7,3.5,2.5,5.7,2.5c0.8,0,1.9-0.2,3.2-0.5
				c1.3-0.4,2.6-0.8,3.9-1.2c1.4-0.5,2.9-1.1,4.5-1.9V641.4z"/>
			<path id="logoText9" class="text" d="M1127.9,614.6c2.8-1.5,5.1-2.3,7-2.4c1.9-0.1,3.4-0.2,4.6-0.2c2.1,0,4,0.4,5.8,1.3c1.8,0.8,3.4,2,4.8,3.4
				c1.4,1.4,2.4,3.1,3.2,5c0.8,1.9,1.2,4,1.2,6.2v25.3c0,2.2-0.4,4.3-1.2,6.2c-0.8,1.9-1.8,3.6-3.2,5.1c-1.4,1.4-3,2.6-4.8,3.4
				c-1.8,0.8-3.8,1.2-5.8,1.2c-1.5,0-3.5-0.2-5.8-0.6c-2.4-0.4-4.7-1.2-7.2-2.5c-0.5,0.4-1,0.8-1.6,1.4c-0.6,0.6-1,1.1-1.4,1.4
				l-4.8-4.8l2.3-2.4v-69.9h6.9V614.6z M1128,658.6c0.2,0.5,0.8,1,1.9,1.4c1,0.4,2.1,0.8,3.4,1.1c1.2,0.3,2.4,0.5,3.6,0.7
				c1.2,0.1,2.1,0.2,2.8,0.2c2.2,0,4.1-0.8,5.7-2.5c1.6-1.7,2.4-3.7,2.4-6v-26.1c0-2.3-0.8-4.3-2.4-6c-1.6-1.7-3.5-2.5-5.8-2.5
				c-0.6,0-1.4,0.1-2.3,0.2c-1,0.1-2,0.3-3,0.6c-1.1,0.3-2.1,0.6-3.2,1c-1.1,0.4-2.1,0.9-2.9,1.4V658.6z"/>
			
		</g>
		<animateTransform attributeName="transform" type="scale" begin="o1.begin" dur="1.2s" fill="freeze" values="0; 0; 0; 0; 0; 0; 0; 0.553; 0.745; 0.866; 0.943; 0.986; 1"/>
		<animateTransform attributeName="transform" type="scale" begin="o1.begin+2.4s" dur="0.3s" fill="freeze" values="1; 0.986; 0.943; 0.866; 0.745; 0.553; 0"/>
	</g>

	<g id="logoSymbol">
		<svg x="879" y="370" width="162" height="186" viewBox="0 0 162 186" fill="none" xmlns="http://www.w3.org/2000/svg">
				<polygon class="dooboolabGreen" points="1.3,47 1.3,139 81,93 81,93 81,1 	"/>
				<polygon class="dooboolabPurple" points="81,1 81,93 81,93 160.7,139 160.7,47 	"/>
				<polygon class="dooboolabNavy" points="81,93 81,93 1.3,139 81,185 160.7,139 	"/>
		</svg>
		<animateTransform attributeName="transform" type="scale" begin="o1.begin" dur="1.2s" fill="freeze" values="0; 0; 0; 0; 0; 0; 0; 0.553; 0.745; 0.866; 0.943; 0.986; 1"/>
		<animateTransform attributeName="transform" type="scale" begin="o1.begin+2.4s" dur="0.3s" fill="freeze" values="1; 0.986; 0.943; 0.866; 0.745; 0.553; 0"/>
	</g>
	<g id="boxOverlapGroup" clip-path="url(#clipPathFull)">
		<rect id="leftSquareOverlap" x="960" class="dooboolabNavy" width="960"/>
		<animate xlink:href="#leftSquareOverlap" attributeName="height" attributeType="XML" dur="0.6s" begin="o1.begin+2.8s" fill="freeze" values="0; 597; 805; 936; 1019; 1065; 1080"/>
		<animate xlink:href="#leftSquareOverlap" attributeName="height" begin="o1.begin+4s" dur="0.2s" fill="freeze" from="0" to="0"/>
		<rect id="rightSquareOverlap" class="dooboolabNavy" width="960"/>
		<animate xlink:href="#rightSquareOverlap" attributeName="y" attributeType="XML" dur="0.6s" begin="o1.begin+2.8s" fill="freeze" values="1080; 483; 275; 144; 61; 15; 0"/>
		<animate xlink:href="#rightSquareOverlap" attributeName="height" attributeType="XML" dur="0.6s" begin="o1.begin+2.8s" fill="freeze" values="0; 597; 805; 936; 1019; 1065; 1080"/>
		<animate xlink:href="#rightSquareOverlap" attributeName="height" begin="o1.begin+4s" dur="0.2s" fill="freeze" from="0" to="0"/>
	</g>
</g>
</svg>
