<?xml version="1.0" encoding="UTF-8"?>
<svg id="Layer_2" data-name="Layer 2" xmlns="http://www.w3.org/2000/svg" xmlns:xlink="http://www.w3.org/1999/xlink" viewBox="0 0 1080 1080">
  <defs>
    <style>
      .cls-1 {
        fill: none;
      }

      .cls-2 {
        fill: #999;
        opacity: .1;
      }

      .cls-3 {
        fill: url(#linear-gradient);
      }

      .cls-4 {
        fill: #009175;
      }

      .cls-5 {
        fill: #eaad7f;
      }

      .cls-6 {
        fill: #e98f55;
      }

      .cls-7 {
        fill: #822e8e;
      }

      .cls-8 {
        fill: #ceab7c;
      }

      .cls-9 {
        fill: #bf6056;
      }

      .cls-10 {
        fill: #232642;
      }

      .cls-11 {
        fill: #2d2d2d;
      }

      .cls-12 {
        fill: url(#linear-gradient-8);
      }

      .cls-13 {
        fill: url(#linear-gradient-9);
      }

      .cls-14 {
        fill: url(#linear-gradient-3);
      }

      .cls-15 {
        fill: url(#linear-gradient-4);
      }

      .cls-16 {
        fill: url(#linear-gradient-2);
      }

      .cls-17 {
        fill: url(#linear-gradient-6);
      }

      .cls-18 {
        fill: url(#linear-gradient-7);
      }

      .cls-19 {
        fill: url(#linear-gradient-5);
      }

      .cls-20 {
        fill: url(#linear-gradient-14);
      }

      .cls-21 {
        fill: url(#linear-gradient-18);
      }

      .cls-22 {
        fill: url(#linear-gradient-20);
      }

      .cls-23 {
        fill: url(#linear-gradient-15);
      }

      .cls-24 {
        fill: url(#linear-gradient-19);
      }

      .cls-25 {
        fill: url(#linear-gradient-16);
      }

      .cls-26 {
        fill: url(#linear-gradient-17);
      }

      .cls-27 {
        fill: url(#linear-gradient-13);
      }

      .cls-28 {
        fill: url(#linear-gradient-12);
      }

      .cls-29 {
        fill: url(#linear-gradient-10);
      }

      .cls-30 {
        fill: url(#linear-gradient-11);
      }
    </style>
    <linearGradient id="linear-gradient" x1="252.35" y1="376.71" x2="730.32" y2="376.71" gradientUnits="userSpaceOnUse">
      <stop offset="0" stop-color="#384196"/>
      <stop offset="1" stop-color="#393d7a"/>
    </linearGradient>
    <linearGradient id="linear-gradient-2" x1="330.02" y1="376.71" x2="652.65" y2="376.71" gradientUnits="userSpaceOnUse">
      <stop offset="0" stop-color="#c654d6"/>
      <stop offset="1" stop-color="#ad37d3"/>
    </linearGradient>
    <linearGradient id="linear-gradient-3" x1="414.64" y1="376.71" x2="568.03" y2="376.71" gradientUnits="userSpaceOnUse">
      <stop offset="0" stop-color="#00facb"/>
      <stop offset="1" stop-color="#00f99f"/>
    </linearGradient>
    <linearGradient id="linear-gradient-4" x1="163.53" y1="609.31" x2="220.46" y2="609.31" gradientUnits="userSpaceOnUse">
      <stop offset="0" stop-color="#262626"/>
      <stop offset="1" stop-color="#0d0d0d"/>
    </linearGradient>
    <linearGradient id="linear-gradient-5" x1="149.45" y1="604.88" x2="284.74" y2="604.88" gradientUnits="userSpaceOnUse">
      <stop offset="0" stop-color="#4d4d4d"/>
      <stop offset=".03" stop-color="#6c6d70"/>
      <stop offset="1" stop-color="#1a1a1a"/>
    </linearGradient>
    <linearGradient id="linear-gradient-6" x1="203.32" y1="418.15" x2="337.48" y2="418.15" gradientUnits="userSpaceOnUse">
      <stop offset="0" stop-color="#fff"/>
      <stop offset="1" stop-color="#c9c9c9"/>
    </linearGradient>
    <linearGradient id="linear-gradient-7" x1="255.82" y1="448.52" x2="275.53" y2="448.52" gradientUnits="userSpaceOnUse">
      <stop offset="0" stop-color="#b0b0b0"/>
      <stop offset="1" stop-color="#999"/>
    </linearGradient>
    <linearGradient id="linear-gradient-8" x1="-1185" y1="579.33" x2="-1330.43" y2="579.33" gradientTransform="translate(2022.34)" gradientUnits="userSpaceOnUse">
      <stop offset="0" stop-color="#4d4d4d"/>
      <stop offset="1" stop-color="#1a1a1a"/>
    </linearGradient>
    <linearGradient id="linear-gradient-9" x1="-1109.82" y1="561.58" x2="-1255.25" y2="561.58" xlink:href="#linear-gradient-8"/>
    <linearGradient id="linear-gradient-10" x1="-1187.16" y1="561.58" x2="-1266.51" y2="561.58" gradientTransform="translate(2022.34)" xlink:href="#linear-gradient-4"/>
    <linearGradient id="linear-gradient-11" x1="-1300.02" y1="416.28" x2="-1219.52" y2="416.28" gradientTransform="translate(2022.34)" xlink:href="#linear-gradient-7"/>
    <linearGradient id="linear-gradient-12" x1="-1256.33" y1="416.28" x2="-1177.47" y2="416.28" gradientTransform="translate(2022.34)" xlink:href="#linear-gradient-7"/>
    <linearGradient id="linear-gradient-13" x1="538.55" y1="404.77" x2="352.41" y2="404.77" gradientTransform="translate(1163.58) rotate(-180) scale(1 -1)" xlink:href="#linear-gradient-6"/>
    <linearGradient id="linear-gradient-14" x1="417.5" y1="393.76" x2="376.61" y2="393.76" gradientTransform="translate(1163.58) rotate(-180) scale(1 -1)" xlink:href="#linear-gradient-7"/>
    <linearGradient id="linear-gradient-15" x1="1014.38" y1="575.08" x2="1042.92" y2="575.08" gradientTransform="translate(-495.6 58.79) rotate(-3.42)" xlink:href="#linear-gradient-7"/>
    <linearGradient id="linear-gradient-16" x1="1001.68" y1="532.38" x2="1090.32" y2="532.38" gradientTransform="translate(-495.6 58.79) rotate(-3.42)" xlink:href="#linear-gradient-6"/>
    <linearGradient id="linear-gradient-17" x1="1062.29" y1="818.14" x2="1063.18" y2="818.14" gradientTransform="translate(-495.6 58.79) rotate(-3.42)" xlink:href="#linear-gradient-5"/>
    <linearGradient id="linear-gradient-18" x1="958.89" y1="714.4" x2="1092.56" y2="714.4" gradientTransform="translate(-495.6 58.79) rotate(-3.42)" xlink:href="#linear-gradient-5"/>
    <linearGradient id="linear-gradient-19" x1="988.3" y1="709.91" x2="1040.8" y2="709.91" gradientTransform="translate(-495.6 58.79) rotate(-3.42)" xlink:href="#linear-gradient-4"/>
    <linearGradient id="linear-gradient-20" x1="1043.73" y1="737.98" x2="1067.37" y2="737.98" gradientTransform="translate(-495.6 58.79) rotate(-3.42)" xlink:href="#linear-gradient-4"/>
  </defs>
  <g id="Layer_1-2" data-name="Layer 1">
    <g>
      <g>
        <rect class="cls-1" x="0" width="1080" height="1080"/>
        <path class="cls-2" d="M940.5,522.9c-1.42-157.83-197.64-237.71-476.94-167.35C184.26,425.92,38.54,646.29,91.64,754.15c43.41,88.18,103.76,55.12,201.8,105.75,95.28,49.2,211.62,140.27,332.02,110.72,184.78-45.34,159.46-113.36,205.35-231.59,36.08-92.95,110.79-94.01,109.68-216.13Z"/>
      </g>
      <g>
        <circle class="cls-10" cx="502.72" cy="388.09" r="238.98"/>
        <circle class="cls-3" cx="491.34" cy="376.71" r="238.98"/>
        <circle class="cls-3" cx="491.34" cy="376.71" r="238.98"/>
        <circle class="cls-7" cx="502.72" cy="388.09" r="161.31"/>
        <circle class="cls-16" cx="491.34" cy="376.71" r="161.31"/>
        <circle class="cls-4" cx="501.08" cy="383.82" r="76.7"/>
        <circle class="cls-14" cx="491.34" cy="376.71" r="76.7"/>
      </g>
      <g>
        <g>
          <g>
            <path class="cls-11" d="M226.03,315.2c2.1-2.43,2.62-5.15,1.54-8.18-.33-.92-.6-1.86-.9-2.8-.31-1-.41-2,.62-2.61,.98-.58,1.58,.28,2.27,.79,.9,.65,1.44,2.41,2.8,1.66,1.13-.62,.56-2.18,.64-3.34,.06-.98-.02-1.97,.05-2.94,.23-3.36,1.31-4.44,4.73-4.33,4.13,.13,8.26,.45,12.38,.7,1.66,.1,3.26-.13,4.81-.71,4.5-4.9,6.66-10.35,4.31-17.04-.68-1.92-1.58-2.51-3.58-2.06-5.31,1.18-10.62,.75-15.87-.51-4.3-1.03-8.64-1.3-12.96-.23-6.39,1.57-10.66,5.5-12.75,11.77-.85,2.55-.07,4.96,.76,7.33,2.8,7.95,6.86,15.28,11.14,22.5Z"/>
            <path class="cls-5" d="M335.61,392.88c2.16,2.27,4,1.84,6.04-.37,4.63-5.02,11.51-6.27,16.99-3.31,4.01,2.17,4.25,4.95,.36,7.29-3.9,2.35-6.74,6.27-11.41,7.49-2.38,.62-4.65,1.12-6.97-.09-1.78-.93-2.63,.03-3.13,1.62l-1.88-12.63s0,0,0,0Z"/>
            <g>
              <path class="cls-1" d="M249.38,326.84c.09,0,.18,0,.27,0l-1.43,.19c.29-.15,.66-.22,1.16-.2Z"/>
              <path class="cls-5" d="M220.99,337.36c4.71-5.54,9.01-12.55,5.18-20.87-.17-.37-.1-.86-.14-1.3,2.1-2.43,2.62-5.15,1.54-8.18-.33-.92-.6-1.86-.9-2.8-.31-1-.41-2,.62-2.61,.98-.58,1.58,.28,2.27,.79,.9,.65,1.44,2.41,2.8,1.66,1.13-.62,.56-2.18,.64-3.34,.06-.98-.02-1.97,.05-2.94,.23-3.36,1.31-4.44,4.73-4.33,4.13,.13,8.26,.45,12.38,.7,1.66,.1,3.26-.13,4.81-.71,.39,2.47,.95,4.93,1.14,7.42,.52,6.87,.59,13.74-1.03,20.5-.56,2.33-1.35,4.49-3.52,5.22l-1.92,.26c-.09,0-.18,0-.27,0-.49-.03-.87,.05-1.16,.2h-.02s-11.62-4.01-12.89-6.29c-1.27-2.28-.19,7.47,4.05,10.39,2.08,1.43,5.09,2.61,7.63,3.44-.21,2.08-.52,4.16-.94,6.21-.34,1.68,.16,2.86,1.68,3.42,0,0-12.89-3.08-18.81-3.08s-9.83,.7-11.84,1.45c1.17-1.78,2.46-3.52,3.9-5.22Z"/>
              <path class="cls-6" d="M235.32,320.74c1.27,2.28,12.89,6.29,12.89,6.29h.02c-.77,.39-.94,1.31-.94,2.39-.01,1.72-.11,3.44-.28,5.15-2.54-.84-5.55-2.02-7.63-3.44-4.25-2.92-5.32-12.67-4.05-10.39Z"/>
              <path class="cls-5" d="M249.65,326.84l1.92-.26c-.55,.18-1.18,.28-1.92,.26Z"/>
            </g>
          </g>
          <path class="cls-15" d="M203.32,591.5c6.68-11.15,17.14-61.66,17.14-61.66v65.18c-4.9,10.88-9.52,21.46-14.72,31.76-10.56,20.9-21.52,41.58-32.96,62l-9.24-4.71s33.11-81.41,39.78-92.56Z"/>
          <path class="cls-19" d="M151.26,692.13c5.07-5.13,4.31-11.46,5.1-17.55,3.73-28.56,7.66-57.08,16.45-84.65,2.06-6.47,4.89-12.54,8.77-18.2,3.76-5.5,6.4-11.63,8.32-18.05,4.17-9.83,6.95-20.08,9.12-30.49,2.83-13.57,2.28-27.51,4.08-41.2,6.48,2.56,12.69,5.74,19.41,7.76,11.61,3.49,23.34,4.13,35.31,2.68,4.43-.54,8.85-1.38,13.36-1.06-.81,10.72-1.64,21.43-2.43,32.15-.1,1.3-.06,2.6-.08,3.9-.74,9.47-1.53,18.93-2.22,28.41-1.91,26.03-3.86,52.06-5.66,78.1-1.27,18.41-2.28,36.84-3.48,55.26-.26,4.03,.19,8.51-1.45,11.94-1.83,3.82,.12,5.5,1.97,7.52,5.7,6.26,14.02,7.62,21.45,9.35,1.58,.37,3.75,1.34,4.89,3.75,1.14,2.41,.46,.02-.93,3.95-1.39,3.93-32.68,1.17-38.38,.9s-6.35-9.64-6.35-9.64c.09-.36,.14-.81,.18-1.37,.4-5.77-1.74-10.78-3.07-16.09-7.33-29.29-12.23-58.96-13.74-89.15-.23-4.58-.61-9.15-.94-13.73-.03-.4-.23-.78-.47-1.59v-65.18s-10.46,50.51-17.14,61.66c-6.68,11.15-39.78,92.56-39.78,92.56l9.24,4.71c-.29,.52-.58,1.05-.88,1.57-3.8,6.76-2.56,13.24-.86,19.9,.7,2.73,3.37,3.89,5.61,5.53,2.53,1.86,6.39,2.34,7.39,4.78,.99,2.44-2.16,3.72-5.32,3.61-3.16-.11-13.05-.32-14.95-1.46-1.9-1.14-3.78-4.34-3.78-4.34,0,0-3.23-11.72-7.8-16.19-3.02-2.95-3.84-7.1-.93-10.05Z"/>
          <path class="cls-17" d="M203.34,479.37c.36-4.13,.45-8.28,.78-12.41,1.08-13.83,1.48-27.7,.82-41.55-.93-19.65-1.31-39.24,2.81-58.63,1.52-7.14,3.6-13.93,7-20.25,.72-1.34,1.5-2.66,2.35-3.96,2.01-.75,5.93-1.45,11.84-1.45s18.81,3.08,18.81,3.08c1.52,.56,2.84,1.37,4.04,2.32,2.09,1.66,3.83,3.73,5.69,5.64,.89,.91,1.78,1.62,2.97,1.85,2.07,.41,24.3,31.18,24.3,31.18,0,0,2.47,4.55,7.83,4.9,13.7,.89,27.4,1.92,41.1,2.89,.64,.04,1.29-.07,1.94-.12l1.88,12.63c-14.69,3.24-29.5,5.69-44.46,7.32-6.17-.34-12.42,.75-18.06-1.08,0,0-17.08-6.43-18.51-9.47-1.14-2.43-.46,65.29-.14,92.56-10.69,.91-21.2,.07-31.6-3.05-6.72-2.02-12.93-5.2-19.41-7.76-1.08-1.37-2.14-2.66-1.97-4.65Z"/>
        </g>
        <path class="cls-18" d="M256.45,402.27c1.43,3.04,18.51,9.47,18.51,9.47,0,6.39-.19,12.78,.04,19.15,.64,18.19,.6,36.39,.41,54.59-.01,1.42-.13,2.84,0,4.25,.15,1.74-.45,2.94-2.02,3.66-4.5-.32-8.93,.52-13.36,1.06-1.24,.15-2.47,.27-3.71,.38-.32-27.27-1.01-94.99,.14-92.56Z"/>
      </g>
      <g>
        <g>
          <g>
            <g>
              <path class="cls-12" d="M832.54,659.54l-5.07,3.55-4.16-6.93c-3.56-5.94-6.69-12.12-9.36-18.51l-22.14-52.99c-3.64-8.71-5.94-17.91-6.82-27.3l-2.64-27.99c-.45-4.76-1.09-9.5-1.92-14.21l-8.53-48.48,.8-1.1c-1.23,.33-2.47,.65-3.73,.93-12.53,2.74-25.07,2.76-37.76,.75-4.69-.74-9.37-1.77-14.19-1.7-4,26.9,1.78,52.82,2.08,61.91,.84,25,1.73,50,2.44,75.01,.51,17.68,.74,35.37,1.17,53.05,.09,3.87-.6,8.13,1,11.49,1.78,3.74-.38,5.25-2.44,7.1-6.37,5.69-15.3,6.57-23.3,7.85-1.7,.27-4.06,1.09-5.39,3.34-1.33,2.24-.49,0,.81,3.83,1.3,3.83,34.78,2.79,40.87,2.83,6.09,.03,7.21-8.9,7.21-8.9-.07-.35-.12-.78-.13-1.32-.17-5.54,1.5-9.75,1.55-14.99,.34-36.89,18.51-81.29,12.18-109.85-1.86-7.92,.05-24.01,2.24-20.07,8.49,15.23,17.58,62.95,21.61,70.99,10.56,21.06,23.18,32.58,34.75,53.2,3.74,6.66,2.12,12.8,0,19.08-.87,2.58-3.77,3.55-6.23,5-2.78,1.65-6.92,1.91-8.1,4.2-1.17,2.29,2.13,3.67,5.51,3.73,3.38,.05,13.92,.36,16-.63s4.23-3.96,4.23-3.96c0,0,3.99-11.05,9.06-15.09,3.36-2.67,4.42-6.6,1.45-9.57-.83-.83-1.88-2.32-3.07-4.24Z"/>
              <path class="cls-13" d="M780.43,515.15c.83,4.71,1.47,9.45,1.92,14.21l2.64,27.99c.89,9.39,3.19,18.6,6.82,27.3l22.14,52.99c2.67,6.39,5.8,12.57,9.36,18.51l4.16,6.93,5.07-3.55c-6.2-10.08-16.04-32.35-16.91-37.22-3.83-21.57-16.51-42.44-16.51-42.44-1.9-6.29,1.86-37.19,2.64-63.39,1.06-35.48-9.99-49.04-11.75-56.42-5.81,1.75-11.44,3.9-17.32,5.5l-.8,1.1,8.53,48.48Z"/>
              <path class="cls-29" d="M780.43,515.15c.83,4.71,1.47,9.45,1.92,14.21l2.64,27.99c.89,9.39,3.19,18.6,6.82,27.3l22.14,52.99c2.67,6.39,5.8,12.57,9.36,18.51l4.16,6.93,5.07-3.55c-6.2-10.08-16.04-32.35-16.91-37.22-3.83-21.57-16.51-42.44-16.51-42.44-1.9-6.29,1.86-37.19,2.64-63.39,1.06-35.48-9.99-49.04-11.75-56.42-5.81,1.75-11.44,3.9-17.32,5.5l-.8,1.1,8.53,48.48Z"/>
            </g>
            <g>
              <path class="cls-1" d="M757.05,336.48c.02,3.08,.17,6.15,1.54,9.05,.6,.01,1.21,.01,1.82,.01,0,0,0,0,0,0-.61,0-1.21,0-1.81-.01-1.37-2.9-1.52-5.96-1.54-9.05Z"/>
              <path class="cls-1" d="M733.98,302.18c.28,.12,.57,.42,.92,.91,1.22,1.72,2.39,3.48,3.69,5.14-1.3-1.66-2.47-3.42-3.69-5.14-.35-.49-.64-.8-.92-.91Z"/>
              <path class="cls-1" d="M783.89,398.44c.17-.31,.51-.48,.91-.55-.4,.07-.73,.23-.91,.55Z"/>
              <path class="cls-1" d="M786.01,398.49c-.19-.14-.38-.27-.55-.37,.19,.12,.37,.24,.55,.37Z"/>
              <path class="cls-1" d="M727.85,322.47c.03-.28,.1-.56,.24-.84,.35-.68,.6-1.37,.79-2.07-.19,.7-.45,1.38-.79,2.07-.14,.28-.21,.56-.24,.84Z"/>
              <path class="cls-1" d="M752.29,317.24c-.61-.04-1.23-.11-1.83-.23,.6,.12,1.21,.19,1.83,.23Z"/>
              <path class="cls-1" d="M757.53,317.58c-.11-.13-.25-.21-.41-.25,.17,.05,.31,.12,.41,.25Z"/>
              <path class="cls-1" d="M738.48,340.21c.89,1.57,.88,3.2,.69,4.85,.2-1.65,.21-3.28-.69-4.85-1.73,.27-2.89-.38-3.79-1.38,.9,1,2.06,1.65,3.79,1.38Z"/>
              <path class="cls-1" d="M789.18,401.12c.06,.04,.11,.09,.17,.13,.4,.28,.25,.27-.17-.13Z"/>
              <path class="cls-1" d="M727.85,322.47c0,.09-.01,.19,0,.28,0-.1,0-.19,0-.28Z"/>
              <path class="cls-1" d="M754.15,317.29c-.62,0-1.24,0-1.85-.05,.61,.04,1.23,.05,1.85,.05Z"/>
              <path class="cls-1" d="M722.85,394.3c-.07-.91-.18-1.82-.33-2.73,.15,.91,.26,1.82,.33,2.73Z"/>
              <path class="cls-1" d="M781.49,415.53c0,.09,0,.18,.02,.27-.01-.09-.02-.18-.02-.27h0Z"/>
              <path class="cls-1" d="M768.22,444.07h0c-.04-.24-.08-.48-.11-.72,.04,.24,.08,.48,.11,.72Z"/>
              <path class="cls-11" d="M789.58,361.2c-3.1-5.32-5.92-12.13-11.51-13.54-1.58-.4-8.75-1.8-10.4-1.88-2.42-.11-4.89-.67-7.27-.24-.61,0-1.21,0-1.82-.01-1.37-2.9-1.52-5.96-1.54-9.05,0-.71,0-1.42,0-2.14,0-2.28-.25-4.6,.77-6.76,1.49-3.16,0-6.3-.11-9.44,0-.25-.08-.43-.18-.56-.11-.13-.25-.21-.41-.25-.17-.05-.35-.06-.54-.06s-.38,0-.56,0c-.31,0-.62,0-.93,.01-.31,0-.62,0-.93,0-.62,0-1.24,0-1.85-.05-.61-.04-1.23-.11-1.83-.23-.6-.12-1.2-.29-1.78-.53-4.2-1.7-7.36-4.75-10.1-8.26-1.3-1.66-2.47-3.42-3.69-5.14-.35-.49-.64-.8-.92-.91-.09-.04-.18-.06-.27-.05-.18,0-.36,.1-.55,.27-.19,.17-.4,.43-.62,.76-.51,.76-.95,1.54-1.33,2.33-.38,.8-.69,1.62-.94,2.45-.25,.84-.44,1.69-.57,2.56s-.2,1.76-.22,2.66c-.04,2.17-.02,4.31-.59,6.4-.19,.7-.45,1.38-.79,2.07-.14,.28-.21,.56-.24,.84,0,.09-.01,.19,0,.28,0,.19,.03,.38,.06,.57,.11,.57,.35,1.15,.58,1.72,.08,.19,.16,.38,.23,.56,.07,.18,.14,.37,.19,.55,.28,.92,.58,1.83,.89,2.74,.63,1.82,1.33,3.61,2.15,5.34,.41,.87,.85,1.72,1.33,2.56,.14,.24,.28,.48,.43,.72,.15,.24,.3,.47,.46,.69s.33,.44,.51,.64c.9,1,2.06,1.65,3.79,1.38,.89,1.57,.88,3.2,.69,4.85-.07,.55-.15,1.1-.23,1.65,0,.35,0,.71,0,1.06,.38,.57,.74,1.16,1.16,1.68-.03-.02-.05-.04-.08-.07-2-1.98-2.39-2.03-5.06-.97-2.06,.81-4.22,1.22-6.41,1.52-.1,.04-.22,.08-.35,.11-.18-.51-.36-1.03-.5-1.55-.3-1.11-6.28-30.34-4.72-40.9,1.27-8.58,1.83-20.31,24.81-19.75,20.45,.71,23.52,12.59,26.71,20.24,3.19,7.65-1.6,21.07-.07,26.31s1.61,5.58,6.61,10.97c4.99,5.39,6.62,9.08,9.99,13.27,3.04,3.78,5.21,10.14,5.67,12.51-.58-.61-1.16-1.21-1.32-1.45-1.96-2.81-4.06-5.58-5.77-8.5Z"/>
              <path class="cls-9" d="M758.59,345.53c.6,0,1.21,.01,1.81,.01-.84,.15-1.67,.42-2.48,.87-.11,.06-.23,.13-.34,.19,.39-.31,.72-.65,1.01-1.07Z"/>
              <path class="cls-8" d="M792.48,457.64s.03,.03,.04,.03-.04-.03-.04-.03Z"/>
              <path class="cls-10" d="M765.03,345.62c-1.54-.09-3.08-.08-4.62-.08,0,0,0,0,0,0,1.54,0,3.09,0,4.62,.08Z"/>
              <path class="cls-11" d="M781.74,408.92c.74-13.23,2.43-26.2,2.89-39.51,.02-.47,.08-.88,.17-1.22,.24-.85,.71-1.3,1.25-1.49,.11-.04,.22-.06,.34-.08,.2,.22,.39,.46,.59,.7,.23,.3,.49,.64,.76,1.02,1.53,2.21,4.75,16.34,2.84,24.65s-5.16,16.64-9.01,23.06c-.02-.24-.04-.48-.06-.73s-.03-.49-.02-.73c.06-1.9,.15-3.8,.25-5.69Z"/>
              <path class="cls-9" d="M781.49,415.53c.04-.7,.11-1.4,.18-2.09-.08,.7-.14,1.39-.18,2.09h0Z"/>
              <path class="cls-9" d="M785.46,398.12c-.14-.09-.28-.18-.42-.26,.13,.07,.27,.16,.42,.26Z"/>
              <path class="cls-9" d="M790.24,402.21c.34,.38,.34,.79,.23,.75-.02-.29-.11-.53-.23-.75Z"/>
              <path class="cls-5" d="M738.93,346.71c3.31-.12,6.03-1.64,8.49-3.68,2.43-2.01,4.3-4.5,5.85-7.23,.2-.35,.63-.64,.26-1.1-.44-.53-.98-.23-1.28,.07-3.27,3.26-7.85,3.56-11.82,5.24-.58,.25-1.3,.14-1.96,.2-1.73,.27-2.89-.38-3.79-1.38-.18-.2-.35-.41-.51-.64s-.31-.46-.46-.69c-.15-.24-.29-.48-.43-.72-.48-.83-.92-1.69-1.33-2.56-.82-1.73-1.52-3.53-2.15-5.34-.31-.91-.61-1.82-.89-2.74-.06-.18-.12-.36-.19-.55-.07-.18-.15-.37-.23-.56-.23-.56-.47-1.14-.58-1.72-.04-.19-.06-.38-.06-.57,0-.1,0-.19,0-.28,.03-.28,.1-.56,.24-.84,.35-.68,.6-1.37,.79-2.07,.57-2.09,.55-4.23,.59-6.4,.02-.9,.09-1.79,.22-2.66,.13-.87,.32-1.73,.57-2.56,.25-.84,.56-1.65,.94-2.45,.38-.8,.82-1.58,1.33-2.33,.23-.34,.43-.59,.62-.76,.19-.17,.37-.26,.55-.27,.09,0,.18,.01,.27,.05,.28,.12,.57,.42,.92,.91,1.22,1.72,2.39,3.48,3.69,5.14,2.73,3.51,5.89,6.55,10.1,8.26,.59,.24,1.18,.41,1.78,.53s1.21,.19,1.83,.23c.61,.04,1.23,.05,1.85,.05,.31,0,.62,0,.93,0,.31,0,.62,0,.93-.01,.18,0,.37-.01,.56,0s.38,.02,.54,.06c.17,.05,.31,.12,.41,.25,.11,.13,.17,.31,.18,.56,.11,3.15,1.6,6.28,.11,9.44-1.02,2.16-.77,4.48-.77,6.76,0,.71,0,1.42,0,2.14,.02,3.08,.17,6.15,1.54,9.05-.28,.42-.62,.77-1.01,1.07-3.47,1.94-6.95,3.71-10.94,4.48-2.56,.49-4.7,.16-6.56-1.62-.42-.53-.78-1.12-1.16-1.68,0-.35,0-.71,0-1.06Z"/>
              <path class="cls-5" d="M733.71,337.5c.15,.24,.3,.47,.46,.69-.16-.22-.31-.46-.46-.69Z"/>
              <path class="cls-5" d="M728.49,325.04c.08,.19,.16,.38,.23,.56-.07-.18-.15-.37-.23-.56Z"/>
              <path class="cls-5" d="M755.08,317.28c.31,0,.62,0,.93-.01,.18,0,.37-.01,.56,0-.19,0-.38,0-.56,0-.31,0-.62,0-.93,.01Z"/>
              <path class="cls-5" d="M727.84,322.75c0,.19,.03,.38,.06,.57-.04-.19-.06-.38-.06-.57Z"/>
              <path class="cls-5" d="M729.8,328.89c.63,1.82,1.33,3.61,2.15,5.34-.82-1.73-1.52-3.53-2.15-5.34Z"/>
              <path class="cls-5" d="M731.2,305.49c-.38,.8-.69,1.62-.94,2.45,.25-.84,.56-1.65,.94-2.45Z"/>
              <path class="cls-5" d="M733.7,302.12c-.18,0-.36,.1-.55,.27,.19-.17,.37-.26,.55-.27Z"/>
              <path class="cls-5" d="M730.26,307.94c-.25,.84-.44,1.69-.57,2.56,.13-.87,.32-1.73,.57-2.56Z"/>
              <path class="cls-5" d="M746.64,351.08c3.99-.76,7.47-2.53,10.94-4.48-.22,.17-.44,.33-.7,.48-2.18,1.24-4.44,2.25-6.73,3.27-2.41,1.08-4.73,1.15-7.16,.89-.26-.03-.51-.08-.73-.15-.46-.14-.85-.36-1.2-.64-.36-.28-.68-.63-.97-1,1.86,1.79,4,2.11,6.56,1.62Z"/>
              <path class="cls-5" d="M741.05,350.45c.35,.28,.75,.5,1.2,.64-.46-.14-.85-.36-1.2-.64Z"/>
              <path class="cls-6" d="M738.48,340.21c.66-.06,1.38,.05,1.96-.2,3.96-1.68,8.54-1.98,11.82-5.24,.3-.3,.84-.6,1.28-.07,.38,.46-.06,.75-.26,1.1-1.55,2.73-3.42,5.22-5.85,7.23-2.46,2.03-5.18,3.56-8.49,3.68,.08-.55,.17-1.1,.23-1.65,.2-1.65,.21-3.28-.69-4.85Z"/>
            </g>
            <path class="cls-5" d="M628.53,337.4c.57,.6,.82,1.51,1.21,2.28-.71,1.02-1.33,2.12-2.15,3.04-2.42,2.72-3.28,5.78-2.32,9.32-1.12-.82-2.32-1.52-3.26-2.57-.86-.95-3.25-3.26-5.44-4.74-1.96-1.33-3.46-3.02-4.42-5.18-1.27-2.86-.27-6.58,2.08-7.28,3.71-1.11,7.25-.07,10.48,1.65,1.29,.68,2.52,2.1,3.82,3.46Z"/>
            <g>
              <path class="cls-30" d="M802.61,365.9h0c-13.38,5.32-23.68,16.35-28.08,30.06l-6.21,19.33c-2.42,7.55-2.95,15.58-1.53,23.38l4.92,27.06c.06,.32,.13,.63,.19,.95,11.29-2.87,18.12-6.6,18.12-6.6,.88,0-2.89-14.84-5.05-20.71-2.4-6.54-4.26-13.21-3.94-20.29,.05-1.04,.14-2.04,.53-3-.01-.09-.03-.18-.04-.27-.01-.09-.02-.18-.02-.27,.04-.7,.11-1.4,.18-2.09,.54-4.87,1.76-9.65,2.09-14.55,.01-.17-1.06-2.92,3.83-9.96,4.89-7.04,13.53-11.44,15.23-12.68"/>
              <path class="cls-28" d="M802.61,365.9h0c-13.38,5.32-23.68,16.35-28.08,30.06l-6.21,19.33c-2.42,7.55-2.95,15.58-1.53,23.38l4.92,27.06c.06,.32,.13,.63,.19,.95,11.29-2.87,18.12-6.6,18.12-6.6,.88,0-2.89-14.84-5.05-20.71-2.4-6.54-4.26-13.21-3.94-20.29,.05-1.04,.14-2.04,.53-3-.01-.09-.03-.18-.04-.27-.01-.09-.02-.18-.02-.27,.04-.7,.11-1.4,.18-2.09,.54-4.87,1.76-9.65,2.09-14.55,.01-.17-1.06-2.92,3.83-9.96,4.89-7.04,13.53-11.44,15.23-12.68"/>
              <path class="cls-27" d="M625.85,349.43c16.38,13.83,36.25,24.77,57.34,34.66,4.15,1.94,8.69,2.99,13.18,2.88,7.45-.18,14.89-.37,22.3-.67,.76,2.88,3.53,11.8,3.83,15.86,.35,4.63-2.81,39.21-2.81,39.21-1.03,6.65-1.99,14.31-2.67,24.18,0,0,14.74,4.37,29.06,4.37,9.97,0,18.76-1.46,25.82-3.25-.06-.31-.13-.63-.19-.95l-4.92-27.06c-.58-3.19-.82-6.41-.75-9.63,0,0,22.57-1.97,25.13-1.97s8.6-.96,13.78-10.78c4.4-8.35,1.54-28.7-2.33-50.39s-5.94-15.13-24.54-18.23c-1.58-.4-8.75-1.8-10.4-1.88-2.42-.11-4.89-.67-7.27-.24,1.54,0,3.09,0,4.62,.08-1.54-.09-3.08-.08-4.62-.08-.84,.15-1.67,.42-2.48,.87-.11,.06-.23,.13-.34,.19-.22,.17-.44,.33-.7,.48-2.18,1.24-4.44,2.25-6.73,3.27-2.41,1.08-4.73,1.15-7.16,.89-.26-.03-.51-.08-.73-.15-.46-.14-.85-.36-1.2-.64-.36-.28-.68-.63-.97-1-.03-.02-.05-.04-.08-.07-2-1.98-2.39-2.03-5.06-.97-2.06,.81-4.22,1.22-6.41,1.52-.1,.04-.22,.08-.35,.11-.55,.16-1.28,.29-1.28,.29,0,0-1.14,.53-1.47,.67-1.35,.82-12.93,7.14-12.93,7.14-6.75,2.38-13.65,4.62-21.06,6.31-1.45,.33-3.24,.19-4.96-.62-2.44-1.15-5.08-2.02-7.51-3.13-12.88-5.89-25.94-11.54-38.72-17.57-3.12-1.48-6.21-3.44-9.99-3.5-.8,.75-1.48,1.59-2.43,2.23-2.81,1.91-3.59,4.38-2,7.57Zm147.54,50.08l1.14-3.56c1.41-4.38,3.43-8.49,5.95-12.22-.18,.58-.36,1.17-.54,1.77-.67,2.23,.25,11.09-1.86,12.36-1.1,.66-2.82,1.18-4.68,1.65Z"/>
            </g>
          </g>
          <path class="cls-20" d="M746.08,409.99l27.31-10.48,4.68-1.65v-9.67s7.39-10.68,7.39-10.68l.46,20.92s2.42,5.87-11.18,10.32"/>
        </g>
        <path class="cls-5" d="M741.51,411.36c2.21,.96,2.9,2.53,2.21,5.3-.58,2.34,.21,4.69,.81,6.87,.5,1.81-.13,2.26-1.65,2.87-3.88,1.55-7.54,.55-11.29,.54-1.35-.42-2.4-1.6-4.01-1.37-.72-.75-1.29-1.77-2.17-2.22-2.92-1.49-3.1-4.73-3.71-7.49-.5-2.29,1.48-3.77,3.5-4.63,4.68-1.97,9.13-1.26,13.51-.1,.94,.25,1.79,.63,2.81,.23Z"/>
      </g>
      <g>
        <g>
          <g>
            <path class="cls-11" d="M575.87,433.66c2.34-3.54,5.2-6.48,8.75-8.91,8.32-5.69,10.18-12.45,6.79-23.74-.6-1.99-.69-2.98,2.02-1.96-1.02-3.25-4.91-3.59-5.48-6.8-.5-2.83-1.14-5.71-3.48-7.84-.33,1.47,1.01,2.72,.26,4.3-8.7-8.15-18.52-6.75-28.55-3.15-1.76,.63-3.48,1.38-5.17,2.18-3.59,1.69-7.14,2.14-10.73-.31-.86,7.85,2.19,13.47,8.75,17.31,3.14,1.25,6.18,2.89,9.43,3.65,5.47,1.29,8.78,4.04,8.8,9.97,0,2.15,.82,3.15,3.05,1.82,1.74-1.04,3.46-.63,4.8,.7,1.34,1.32,.46,2.83-.11,4.23-.27,.65-.55,1.29-.91,1.89-1.73,2.85-1.14,5.07,1.77,6.67Z"/>
            <g>
              <path class="cls-1" d="M550.55,440.78c.76,0,1.46,.06,2.12,.17-.76,0-1.48-.05-2.12-.17Z"/>
              <path class="cls-5" d="M568.76,431.88s-1.71,1.59-4.22,4.65c-2.13,2.59-7.68,4.41-11.88,4.42-.65-.11-1.36-.17-2.12-.17-.32-.06-.62-.08-.91-.09-2.13-.43-2.97-2.48-3.39-4.63-1.72-8.69-.99-17.36,.4-25.99,.31-1.93,.97-3.85,2.4-5.35,3.14,1.25,6.18,2.89,9.43,3.65,5.47,1.29,8.78,4.04,8.8,9.97,0,2.15,.82,3.15,3.05,1.82,1.74-1.04,3.46-.63,4.8,.7,1.34,1.32,.46,2.83-.11,4.23-.27,.65-.55,1.29-.91,1.89-1.73,2.85-1.14,5.07,1.77,6.67,1.77,5.25,5.34,9.41,8.44,13.85-3.24,2.2-6.5,4.38-9.73,6.61-4.24,2.92-8.68,5.24-14.05,4.9,1.98-4.04-1.38-7.26-1.75-10.97-.03-.29-.07-.57-.11-.84,2.19-1.74,4.85-3.94,6.53-5.57,3.24-3.15,3.56-9.76,3.56-9.76Z"/>
              <path class="cls-6" d="M552.67,440.95c4.2-.01,9.75-1.83,11.88-4.42,2.51-3.06,4.22-4.65,4.22-4.65,0,0-.32,6.6-3.56,9.76-1.67,1.63-4.34,3.82-6.53,5.57-.58-3.48-2.57-5.66-6.01-6.25Z"/>
              <path class="cls-5" d="M549.63,440.7c.29,0,.6,.03,.91,.09-.33,0-.63-.03-.91-.09Z"/>
            </g>
          </g>
          <path class="cls-23" d="M568.92,535.86s1.32-1.81,4.76-2.26,4.25,6.01,4.25,6.01c0,0,1.75,25.11,1.97,56.41,.03,3.86,.03,7.82,0,11.84-7.85,.33-16.52-.5-22.23-1.89,.01-.17,.02-.34,.03-.52,0-.09,.02-.62,.03-1.49,.08-6.77-5.79-51.65-6.13-51.74-5.43-12,2.91-8.24,1.06-8.85-1.52-.66,16.26-7.51,16.26-7.51Z"/>
          <path class="cls-25" d="M536.46,527.61c4.21-14.34,5.46-20.06,5.46-20.06,0,0,2.99-13.1,3.39-20.11,2.21-9.43,5.03-18.59,11.57-26.12,1.02-1.17,1.99-2.26,3.67-2.31,5.37,.34,9.81-1.98,14.05-4.9,3.23-2.22,6.48-4.41,9.73-6.61,1.55-.52,2.71,.4,3.89,1.12,4.63,2.82,8.66,6.35,12.16,10.48,9.27,10.93,15.26,24.65,16.09,38.75,1.88,31.99,8.97,54.72,11.3,80.48,.02,.2-.03,.39-.06,.58-.26,1.33-1.24,2.4-1.24,3.86-2.4,1.86-29.65,22.89-39.73,24.46-2.13,.33-4.43,.54-6.81,.64,.03-4.02,.02-7.97,0-11.84-.22-31.3-1.97-56.41-1.97-56.41,0,0-.81-6.46-4.25-6.01s-4.76,2.26-4.76,2.26c0,0-13.97,15.14-23.68,13.54-6.02-.99-10.4-16.31-8.78-21.8Z"/>
          <g>
            <g>
              <path class="cls-26" d="M613.66,812.26l.86-.53c-.3,.21-.59,.38-.86,.53Z"/>
              <path class="cls-21" d="M512.39,824.67c3.12-3.11,7.17-4.27,11.35-4.95,6.9-1.11,12.98-3.75,17.79-8.94,.5-.54,1.88-1.28,.79-1.94l3.51-.46,6.51-29.82s13.49-47.67,22.58-99.7c3.61-20.67,4.83-46.9,4.98-71,2.38-.1,4.68-.31,6.81-.64,10.07-1.57,37.33-22.59,39.73-24.46,0,.35,.05,.72,.19,1.13,2.07,6.17,1.97,12.64,1.75,19.07-.54,16.37,1.04,66.48,.69,76.76-.16,4.74,3.16,94.52,3.9,118.62,.02,.79,3.63,6.99,3.37,7.2-2.83,2.26,4.6,7.53,4.43,9.48-.32,3.6,4.54,5.69,3.69,7.27-1.24,2.32,1.21,7.32-1.31,8.33-2.52,1.01-39,1.72-39,1.72,0,0-1.45,.03-1.65-.89-.79-3.71,1.11-6.12,4.23-7.99,5.99-3.58,7.82-6.4,7.78-11.73l3.97-3.74-24.13-100.13-4.21,22.13c-.29,.14-.64,.21-.67,.34-4.31,23.74-13.16,45.95-22.86,67.87-.23,.53-.39,1.09-.59,1.64-1.2,2.4-2.4,4.79-3.6,7.19-.37,.73-.56,1.85-1.14,2.12-4.33,2.04-3.46,6.12-3.95,9.65-.69,4.96-1.22,9.94-3.06,15.26l-4.3,1.86c-4.87-2.12-9.14-3.63-13.71-4.22-7.41-.97-14.84-1.81-22.25-2.77-.99-.13-2.39,.26-2.86-.82-.56-1.3,.33-2.54,1.23-3.43Z"/>
            </g>
            <path class="cls-24" d="M574.93,678.86c-9.1,52.02-22.58,99.7-22.58,99.7l-6.51,29.82-3.51,.46c-.07-.04-.14-.08-.23-.12-4.77-2.23-2.41-6.16-2.56-9.5,.33-1.83,.71-3.65,.97-5.49,2.5-18.05,4.6-36.14,6.49-54.26,4.64-44.41,7.94-88.93,10.68-133.5,5.72,1.39,14.38,2.22,22.23,1.89-.15,24.11-1.37,50.33-4.98,71Z"/>
            <path class="cls-22" d="M618.5,807.99l-3.97,3.74-.86,.53c-3.54,1.9-4.7-1.3-6.38-3.66-12.47-17.42-5.29-60.74-17.13-78.6l14.17-78.72,14.17,156.72Z"/>
          </g>
        </g>
        <path class="cls-5" d="M543.98,533.48c.57,.6,.82,1.51,1.21,2.28-.71,1.02-1.33,2.12-2.15,3.04-2.42,2.72-3.28,5.78-2.32,9.32-1.12-.82-2.32-1.52-3.26-2.57-.86-.95-3.25-3.26-5.44-4.74-1.96-1.33-3.46-3.02-4.42-5.18-1.27-2.86-.27-6.58,2.08-7.28,3.71-1.11,7.25-.07,10.48,1.65,1.29,.68,2.52,2.1,3.82,3.46Z"/>
      </g>
    </g>
  </g>
</svg>