<?xml version="1.0" encoding="UTF-8"?>
<svg id="Layer_2" data-name="Layer 2" xmlns="http://www.w3.org/2000/svg" xmlns:xlink="http://www.w3.org/1999/xlink" viewBox="0 0 1080 1080">
  <defs>
    <style>
      .cls-1 {
        fill: none;
      }

      .cls-2 {
        fill: #999;
        opacity: .1;
      }

      .cls-3 {
        fill: url(#linear-gradient);
      }

      .cls-4 {
        fill: #009175;
      }

      .cls-5 {
        fill: #eaad7f;
      }

      .cls-6 {
        fill: #e98f55;
      }

      .cls-7 {
        fill: #822e8e;
      }

      .cls-8 {
        fill: #87500f;
      }

      .cls-9 {
        fill: #ceab7c;
      }

      .cls-10 {
        fill: #bf6056;
      }

      .cls-11 {
        fill: #232642;
      }

      .cls-12 {
        fill: #2d2d2d;
      }

      .cls-13 {
        fill: url(#linear-gradient-8);
      }

      .cls-14 {
        fill: url(#linear-gradient-9);
      }

      .cls-15 {
        fill: url(#linear-gradient-3);
      }

      .cls-16 {
        fill: url(#linear-gradient-4);
      }

      .cls-17 {
        fill: url(#linear-gradient-2);
      }

      .cls-18 {
        fill: url(#linear-gradient-6);
      }

      .cls-19 {
        fill: url(#linear-gradient-7);
      }

      .cls-20 {
        fill: url(#linear-gradient-5);
      }

      .cls-21 {
        fill: url(#linear-gradient-10);
      }

      .cls-22 {
        fill: url(#linear-gradient-11);
      }
    </style>
    <linearGradient id="linear-gradient" x1="260.61" y1="643.72" x2="806.28" y2="643.72" gradientUnits="userSpaceOnUse">
      <stop offset="0" stop-color="#384196"/>
      <stop offset="1" stop-color="#393d7a"/>
    </linearGradient>
    <linearGradient id="linear-gradient-2" x1="401.58" y1="554.65" x2="901.32" y2="554.65" gradientUnits="userSpaceOnUse">
      <stop offset="0" stop-color="#c654d6"/>
      <stop offset="1" stop-color="#ad37d3"/>
    </linearGradient>
    <linearGradient id="linear-gradient-3" x1="525.72" y1="455.26" x2="1001.44" y2="455.26" gradientUnits="userSpaceOnUse">
      <stop offset="0" stop-color="#00facb"/>
      <stop offset="1" stop-color="#00f99f"/>
    </linearGradient>
    <linearGradient id="linear-gradient-4" x1="-1207.12" y1="355.56" x2="-1340.75" y2="355.56" gradientTransform="translate(1951.45)" gradientUnits="userSpaceOnUse">
      <stop offset="0" stop-color="#4d4d4d"/>
      <stop offset="1" stop-color="#1a1a1a"/>
    </linearGradient>
    <linearGradient id="linear-gradient-5" x1="-1138.05" y1="339.25" x2="-1271.67" y2="339.25" xlink:href="#linear-gradient-4"/>
    <linearGradient id="linear-gradient-6" x1="-1209.11" y1="339.25" x2="-1282.02" y2="339.25" gradientTransform="translate(1951.45)" gradientUnits="userSpaceOnUse">
      <stop offset="0" stop-color="#262626"/>
      <stop offset="1" stop-color="#0d0d0d"/>
    </linearGradient>
    <linearGradient id="linear-gradient-7" x1="-1200.35" y1="165.55" x2="-1366.31" y2="165.55" gradientTransform="translate(1951.45)" gradientUnits="userSpaceOnUse">
      <stop offset="0" stop-color="#fff"/>
      <stop offset="1" stop-color="#c9c9c9"/>
    </linearGradient>
    <linearGradient id="linear-gradient-8" x1="-1362.73" y1="167.97" x2="-1196.78" y2="167.97" gradientTransform="translate(1951.45)" gradientUnits="userSpaceOnUse">
      <stop offset="0" stop-color="#b0b0b0"/>
      <stop offset="1" stop-color="#999"/>
    </linearGradient>
    <linearGradient id="linear-gradient-9" x1="-1272.67" x2="-1110.07" xlink:href="#linear-gradient-8"/>
    <linearGradient id="linear-gradient-10" x1="639.85" y1="157.07" x2="689.86" y2="157.07" gradientUnits="userSpaceOnUse">
      <stop offset="0" stop-color="#ff94a8"/>
      <stop offset="1" stop-color="#d4000b"/>
    </linearGradient>
    <linearGradient id="linear-gradient-11" x1="643.8" y1="178.64" x2="664.27" y2="178.64" gradientUnits="userSpaceOnUse">
      <stop offset="0" stop-color="#ffdb18"/>
      <stop offset="1" stop-color="#fca22d"/>
    </linearGradient>
  </defs>
  <g id="Layer_1-2" data-name="Layer 1">
    <g>
      <g>
        <rect class="cls-1" x="0" width="1080" height="1080"/>
        <path class="cls-2" d="M940.5,522.9c-1.42-157.83-197.64-237.71-476.94-167.35C184.26,425.92,38.54,646.29,91.64,754.15c43.41,88.18,103.76,55.12,201.8,105.75,95.28,49.2,211.62,140.27,332.02,110.72,184.78-45.34,159.46-113.36,205.35-231.59,36.08-92.95,110.79-94.01,109.68-216.13Z"/>
      </g>
      <polygon class="cls-11" points="806.28 570.19 665.31 489.69 260.61 717.67 260.61 777.09 401.58 857.6 806.28 629.62 806.28 570.19"/>
      <polygon class="cls-3" points="665.31 489.69 260.61 717.24 401.58 797.74 806.28 570.19 665.31 489.69"/>
      <polygon class="cls-7" points="806.28 509.99 684.52 440.46 401.58 599.32 401.58 659.97 523.34 729.51 806.28 570.65 806.28 509.99"/>
      <polygon class="cls-17" points="401.58 599.32 523.34 668.85 806.28 509.99 684.52 440.46 401.58 599.32"/>
      <polygon class="cls-4" points="806.28 433.23 706.88 376.47 525.72 477.28 525.72 554.65 625.11 611.42 806.28 510.38 806.28 433.23"/>
      <polygon class="cls-15" points="706.88 376.47 525.72 477.28 625.11 534.04 806.28 433.23 706.88 376.47"/>
      <g>
        <g>
          <path class="cls-16" d="M739.91,429.25l-4.66,3.26-3.82-6.37c-3.27-5.45-6.15-11.14-8.6-17.01l-20.34-48.69c-3.34-8-5.46-16.46-6.27-25.09l-2.43-25.72c-.41-4.37-1-8.73-1.76-13.05l-7.84-44.54,.73-1.01c-1.13,.31-2.27,.6-3.42,.85-11.51,2.52-23.04,2.53-34.69,.69-4.31-.68-8.61-1.63-13.04-1.56-3.68,24.72,1.63,48.53,1.91,56.89,.78,22.97,1.59,45.94,2.25,68.92,.47,16.25,.68,32.5,1.07,48.74,.09,3.55-.55,7.47,.92,10.56,1.63,3.44-.35,4.83-2.24,6.52-5.85,5.23-14.05,6.04-21.4,7.21-1.56,.25-3.73,1-4.95,3.07-1.22,2.06-.45,0,.75,3.52,1.2,3.52,31.96,2.57,37.55,2.6,5.59,.03,6.62-8.18,6.62-8.18-.07-.32-.11-.72-.12-1.21-.15-5.09,1.38-8.96,1.42-13.77,.31-33.9,17.01-74.69,11.19-100.93-1.71-7.28,.04-22.06,2.06-18.44,7.8,13.99,16.15,57.84,19.85,65.22,9.7,19.35,21.3,29.93,31.93,48.88,3.44,6.12,1.95,11.76,0,17.53-.8,2.37-3.46,3.26-5.72,4.6-2.56,1.51-6.36,1.76-7.44,3.86-1.08,2.1,1.96,3.37,5.06,3.42,3.1,.05,12.79,.34,14.7-.58s3.89-3.64,3.89-3.64c0,0,3.66-10.15,8.32-13.86,3.08-2.45,4.06-6.06,1.33-8.79-.76-.76-1.73-2.13-2.82-3.9Z"/>
          <path class="cls-20" d="M692.03,296.59c.76,4.33,1.35,8.68,1.76,13.05l2.43,25.72c.81,8.63,2.93,17.09,6.27,25.09l20.34,48.69c2.45,5.87,5.33,11.55,8.6,17.01l3.82,6.37,4.66-3.26c-5.69-9.26-14.74-29.72-15.53-34.19-3.52-19.82-15.17-38.99-15.17-38.99-1.75-5.78,1.71-34.17,2.43-58.24,.97-32.6-9.17-45.06-10.8-51.84-5.34,1.61-10.51,3.59-15.91,5.05l-.73,1.01,7.84,44.54Z"/>
          <path class="cls-18" d="M692.03,296.59c.76,4.33,1.35,8.68,1.76,13.05l2.43,25.72c.81,8.63,2.93,17.09,6.27,25.09l20.34,48.69c2.45,5.87,5.33,11.55,8.6,17.01l3.82,6.37,4.66-3.26c-5.69-9.26-14.74-29.72-15.53-34.19-3.52-19.82-15.17-38.99-15.17-38.99-1.75-5.78,1.71-34.17,2.43-58.24,.97-32.6-9.17-45.06-10.8-51.84-5.34,1.61-10.51,3.59-15.91,5.05l-.73,1.01,7.84,44.54Z"/>
        </g>
        <g>
          <path class="cls-1" d="M670.55,132.43c.01,2.83,.16,5.65,1.41,8.31,.56,0,1.11,.01,1.67,.01,0,0,0,0,0,0-.56,0-1.11,0-1.67-.01-1.26-2.66-1.4-5.48-1.41-8.31Z"/>
          <path class="cls-1" d="M649.35,100.91c.26,.11,.52,.38,.85,.84,1.12,1.58,2.2,3.2,3.39,4.73-1.19-1.53-2.27-3.15-3.39-4.73-.32-.45-.59-.73-.85-.84Z"/>
          <path class="cls-1" d="M695.21,189.35c.16-.29,.47-.44,.83-.5-.36,.06-.67,.22-.83,.5Z"/>
          <path class="cls-1" d="M697.15,189.4c-.18-.13-.35-.24-.5-.34,.17,.11,.34,.22,.5,.34Z"/>
          <path class="cls-1" d="M643.72,119.55c.02-.26,.09-.52,.22-.77,.32-.63,.55-1.26,.73-1.9-.18,.64-.41,1.27-.73,1.9-.13,.25-.2,.51-.22,.77Z"/>
          <path class="cls-1" d="M666.18,114.75c-.56-.04-1.13-.1-1.68-.21,.55,.11,1.12,.17,1.68,.21Z"/>
          <path class="cls-1" d="M670.99,115.06c-.1-.12-.23-.19-.38-.23,.15,.04,.28,.11,.38,.23Z"/>
          <path class="cls-1" d="M653.49,135.85c.82,1.44,.81,2.94,.63,4.46,.18-1.51,.19-3.01-.63-4.45-1.59,.25-2.66-.35-3.48-1.27,.83,.92,1.89,1.52,3.48,1.27Z"/>
          <path class="cls-1" d="M700.07,191.82c.05,.04,.1,.08,.16,.12,.36,.25,.23,.24-.16-.12Z"/>
          <path class="cls-1" d="M643.72,119.55c0,.09-.01,.17,0,.26,0-.09,0-.17,0-.26Z"/>
          <path class="cls-1" d="M667.88,114.79c-.57,0-1.14,0-1.7-.04,.56,.04,1.13,.05,1.7,.04Z"/>
          <path class="cls-1" d="M639.13,185.55c-.07-.84-.17-1.67-.3-2.51,.14,.84,.24,1.67,.3,2.51Z"/>
          <path class="cls-1" d="M693,205.05c0,.08,0,.16,.02,.25-.01-.08-.02-.16-.02-.25h0Z"/>
          <path class="cls-1" d="M680.81,231.28h0c-.03-.22-.07-.44-.1-.67,.03,.22,.07,.44,.1,.67Z"/>
          <path class="cls-12" d="M700.43,155.14c-2.85-4.89-5.44-11.15-10.57-12.44-1.45-.37-8.04-1.66-9.55-1.73-2.22-.11-4.49-.61-6.68-.22-.56,0-1.11,0-1.67-.01-1.26-2.66-1.4-5.48-1.41-8.31,0-.65,0-1.31,0-1.96,0-2.1-.23-4.22,.71-6.21,1.37-2.91,0-5.79-.1-8.68,0-.23-.07-.4-.17-.52-.1-.12-.23-.19-.38-.23-.15-.04-.32-.06-.5-.06s-.35,0-.52,0c-.28,0-.57,0-.85,0-.28,0-.57,0-.85,0-.57,0-1.14,0-1.7-.04-.56-.04-1.13-.1-1.68-.21-.55-.11-1.1-.26-1.64-.48-3.86-1.56-6.76-4.36-9.28-7.59-1.19-1.53-2.27-3.15-3.39-4.73-.32-.45-.59-.73-.85-.84-.09-.04-.17-.05-.25-.05-.17,0-.33,.09-.51,.25-.18,.16-.36,.39-.57,.7-.47,.7-.87,1.41-1.22,2.15-.35,.73-.63,1.48-.86,2.25-.23,.77-.4,1.55-.52,2.35s-.19,1.62-.2,2.45c-.03,1.99-.02,3.96-.54,5.88-.18,.64-.41,1.27-.73,1.9-.13,.25-.2,.51-.22,.77,0,.09-.01,.17,0,.26,0,.17,.02,.35,.06,.53,.1,.53,.32,1.06,.54,1.58,.07,.17,.14,.34,.21,.51,.07,.17,.13,.34,.18,.5,.26,.84,.53,1.68,.82,2.52,.58,1.67,1.22,3.31,1.97,4.91,.38,.8,.79,1.58,1.23,2.35,.13,.22,.26,.44,.39,.66,.14,.22,.28,.43,.42,.64s.3,.4,.47,.58c.83,.92,1.89,1.52,3.48,1.27,.82,1.44,.81,2.94,.63,4.45-.06,.5-.14,1.01-.22,1.51,0,.33,0,.65,0,.98,.35,.52,.68,1.06,1.06,1.55-.02-.02-.05-.04-.07-.06-1.84-1.82-2.2-1.86-4.65-.89-1.89,.75-3.88,1.12-5.89,1.4-.09,.04-.2,.07-.32,.1-.17-.47-.33-.94-.46-1.42-.28-1.02-5.77-27.88-4.34-37.57,1.16-7.88,1.68-18.66,22.8-18.15,18.79,.65,21.61,11.57,24.54,18.6,2.93,7.03-1.47,19.36-.06,24.18s1.48,5.13,6.07,10.08c4.59,4.95,6.08,8.34,9.18,12.19,2.79,3.47,4.78,9.32,5.21,11.49-.53-.56-1.06-1.11-1.22-1.33-1.8-2.58-3.73-5.12-5.3-7.81Z"/>
          <path class="cls-10" d="M671.96,140.74c.56,0,1.11,.01,1.67,.01-.77,.14-1.53,.38-2.28,.8-.1,.06-.21,.12-.31,.17,.36-.28,.66-.6,.92-.99Z"/>
          <path class="cls-9" d="M703.1,243.75s.03,.03,.03,.03-.03-.03-.03-.03Z"/>
          <path class="cls-11" d="M677.88,140.83c-1.41-.08-2.83-.07-4.25-.08,0,0,0,0,0,0,1.42,0,2.84,0,4.25,.08Z"/>
          <path class="cls-12" d="M693.24,198.99c.68-12.15,2.23-24.07,2.65-36.3,.01-.44,.07-.81,.16-1.12,.22-.78,.65-1.2,1.15-1.37,.1-.03,.2-.06,.31-.07,.19,.2,.36,.42,.54,.64,.21,.27,.45,.59,.69,.93,1.4,2.03,4.36,15.01,2.61,22.64s-4.74,15.29-8.28,21.19c-.01-.22-.04-.45-.05-.67s-.03-.45-.02-.67c.06-1.75,.14-3.49,.23-5.22Z"/>
          <path class="cls-10" d="M693,205.05c.04-.64,.1-1.28,.17-1.92-.07,.64-.13,1.28-.17,1.92h0Z"/>
          <path class="cls-10" d="M696.65,189.06c-.13-.08-.26-.16-.39-.24,.12,.06,.25,.15,.39,.24Z"/>
          <path class="cls-10" d="M701.04,192.81c.31,.35,.31,.72,.21,.69-.02-.27-.1-.49-.21-.69Z"/>
          <path class="cls-5" d="M653.9,141.82c3.04-.11,5.54-1.51,7.8-3.38,2.23-1.84,3.95-4.13,5.38-6.64,.18-.32,.58-.59,.24-1.01-.4-.49-.9-.21-1.17,.06-3.01,3-7.21,3.27-10.86,4.82-.53,.23-1.2,.13-1.8,.18-1.59,.25-2.66-.35-3.48-1.27-.17-.18-.32-.38-.47-.58s-.29-.42-.42-.64c-.14-.22-.27-.44-.39-.66-.44-.77-.85-1.55-1.23-2.35-.76-1.59-1.4-3.24-1.97-4.91-.29-.83-.56-1.67-.82-2.52-.05-.17-.11-.33-.18-.5-.07-.17-.14-.34-.21-.51-.22-.52-.44-1.05-.54-1.58-.03-.18-.05-.35-.06-.53,0-.09,0-.17,0-.26,.02-.26,.09-.52,.22-.77,.32-.63,.55-1.26,.73-1.9,.53-1.92,.51-3.88,.54-5.88,.01-.83,.08-1.65,.2-2.45,.12-.8,.29-1.58,.52-2.35,.23-.77,.52-1.52,.86-2.25,.35-.73,.75-1.45,1.22-2.15,.21-.31,.39-.54,.57-.7,.18-.16,.34-.24,.51-.25,.08,0,.17,.01,.25,.05,.26,.11,.52,.38,.85,.84,1.12,1.58,2.2,3.2,3.39,4.73,2.51,3.23,5.42,6.02,9.28,7.59,.54,.22,1.08,.37,1.64,.48s1.12,.17,1.68,.21c.56,.04,1.13,.05,1.7,.04,.28,0,.57,0,.85,0,.28,0,.57,0,.85,0,.16,0,.34,0,.52,0s.35,.02,.5,.06c.15,.04,.28,.11,.38,.23,.1,.12,.16,.28,.17,.52,.1,2.89,1.47,5.77,.1,8.68-.94,1.99-.71,4.12-.71,6.21,0,.65,0,1.31,0,1.96,.01,2.83,.16,5.65,1.41,8.31-.26,.39-.57,.71-.92,.99-3.19,1.78-6.39,3.41-10.05,4.11-2.36,.45-4.32,.15-6.03-1.49-.38-.49-.72-1.03-1.06-1.55,0-.33,0-.65,0-.98Z"/>
          <path class="cls-5" d="M649.11,133.37c.14,.22,.28,.43,.42,.64-.15-.2-.29-.42-.42-.64Z"/>
          <path class="cls-5" d="M644.31,121.92c.07,.17,.14,.34,.21,.51-.07-.17-.14-.34-.21-.51Z"/>
          <path class="cls-5" d="M668.74,114.79c.28,0,.57,0,.85,0,.16,0,.34,0,.52,0-.17,0-.35,0-.52,0-.28,0-.57,0-.85,0Z"/>
          <path class="cls-5" d="M643.71,119.81c0,.17,.02,.35,.06,.53-.03-.18-.05-.35-.06-.53Z"/>
          <path class="cls-5" d="M645.51,125.45c.58,1.67,1.22,3.31,1.97,4.91-.76-1.59-1.4-3.24-1.97-4.91Z"/>
          <path class="cls-5" d="M646.8,103.95c-.35,.73-.63,1.48-.86,2.25,.23-.77,.52-1.52,.86-2.25Z"/>
          <path class="cls-5" d="M649.1,100.86c-.17,0-.33,.09-.51,.25,.18-.16,.34-.24,.51-.25Z"/>
          <path class="cls-5" d="M645.93,106.21c-.23,.77-.4,1.55-.52,2.35,.12-.8,.29-1.58,.52-2.35Z"/>
          <path class="cls-5" d="M660.99,145.84c3.66-.7,6.87-2.33,10.05-4.11-.2,.16-.41,.3-.64,.44-2,1.14-4.08,2.06-6.18,3-2.22,.99-4.34,1.06-6.58,.82-.24-.03-.47-.07-.68-.14-.42-.13-.78-.33-1.11-.59-.33-.26-.62-.58-.89-.92,1.71,1.64,3.67,1.94,6.03,1.49Z"/>
          <path class="cls-5" d="M655.85,145.26c.32,.25,.69,.46,1.11,.59-.42-.13-.78-.33-1.11-.59Z"/>
          <path class="cls-6" d="M653.49,135.85c.6-.05,1.27,.04,1.8-.18,3.64-1.54,7.85-1.82,10.86-4.82,.28-.27,.77-.55,1.17-.06,.34,.42-.05,.69-.24,1.01-1.43,2.51-3.14,4.8-5.38,6.64-2.26,1.87-4.76,3.27-7.8,3.38,.08-.51,.15-1.01,.22-1.51,.18-1.51,.19-3.01-.63-4.46Z"/>
        </g>
        <path class="cls-5" d="M599.69,73.64c-.04,.76-.5,1.5-.77,2.25-1.13,.17-2.26,.45-3.39,.48-3.35,.09-5.93,1.45-7.7,4.32-.16-1.26-.44-2.51-.34-3.8,.09-1.18,.14-4.22-.25-6.62-.35-2.15-.16-4.22,.68-6.22,1.12-2.65,4.23-4.32,6.18-3.19,3.08,1.79,4.61,4.81,5.49,8.05,.35,1.29,.18,3,.09,4.73Z"/>
        <path class="cls-5" d="M744.89,81.09c-.24,2.18,.33,3.5,1.97,4.35,1.38,.72,2.33,2.51,3.24,4.06,.76,1.29,1.2,1.03,2.01,.16,2.08-2.22,2.78-5.54,4.02-8.43,.23-1.25-.02-2.65,.63-3.78-.15-.93-.48-1.88-.41-2.78,.21-3-1.39-4.76-2.6-6.61-1-1.53-2.42-.75-3.52,.38-2.56,2.62-3.67,6.41-4.52,10.36-.18,.85-.27,1.69-.81,2.28Z"/>
        <g>
          <path class="cls-19" d="M679.49,226.31c-1.3-7.17-.82-14.54,1.41-21.48l5.71-17.76c4.05-12.6,13.51-22.72,25.8-27.62h0c11.47-4.56,20.51-13.7,24.95-25.22l7.35-19.04c1.03-2.66,1.79-5.41,2.29-8.21l4.1-23.09c-.98-.4-2.13-.56-3.42-.49-1.18,.07-2.29-.18-3.43-.28-2.76,2.3-3.62,5.67-4.87,8.67-5.09,12.3-10.66,24.47-15.93,36.72-1,2.32-2.32,4.56-3.29,6.91-.69,1.65-1.91,2.83-3.22,3.44-6.34,2.93-10.05,5.67-15.36,6.39-5.72,.78-8.73-1.81-11.7-2.56-1.45-.37-8.04-1.66-9.55-1.73-2.22-.11-4.49-.61-6.68-.22,1.42,0,2.84,0,4.25,.08-1.41-.08-2.83-.07-4.25-.08-.77,.14-1.53,.38-2.28,.8-.1,.06-.21,.12-.31,.17-.2,.16-.41,.3-.64,.44-2,1.14-4.08,2.06-6.18,3-2.22,.99-4.34,1.06-6.58,.82-.24-.03-.47-.07-.68-.14-.42-.13-.78-.33-1.11-.59-.33-.26-.62-.58-.89-.92-.02-.02-.05-.04-.07-.06-1.84-1.82-2.2-1.86-4.65-.89-1.89,.75-3.88,1.12-5.89,1.4-.09,.04-.2,.07-.32,.1-.51,.14-1.17,.26-1.17,.26,0,0-1.05,.49-1.35,.62-1.24,.75-.85,.4-1.65,.74-.81,.34-2.76,1.68-3.02,1.97-.91,.67-3.39-1.18-3.39-1.18-6-3.71-11.97-7.59-17.83-12.26-1.07-.85-1.99-2.22-2.4-3.91-.58-2.42-1.46-4.8-2.06-7.19-3.16-12.62-6.6-25.23-9.59-37.87-.73-3.09-1.1-6.43-3.22-9.18-1-.15-1.99-.15-3-.47-2.99-.92-5.21-.06-6.58,2.91-.53,19.69,3.01,40.23,8.01,61.04,.98,4.09,2.84,7.95,5.49,11.11,4.91,5.86,9.83,11.7,14.82,17.41,2.78,3.18,15.2,5.42,18.02,8.48-.12,.36,3.36,11,3.69,15.41,.33,4.4,1.75,11.02,0,21.08-1.75,10.06-3.86,19.98-5.03,37.16,0,0,13.54,4.01,26.7,4.01,9.16,0,17.24-1.34,23.72-2.99-.06-.29-.12-.58-.17-.87l-4.52-24.87Z"/>
          <path class="cls-13" d="M696.19,226.95c-2.21-6.01-3.92-12.13-3.62-18.64,.04-.95,.13-1.88,.49-2.76-.01-.08-.03-.16-.04-.25-.01-.08-.02-.16-.02-.25,.04-.64,.1-1.28,.17-1.92,.49-4.48,1.62-8.87,1.92-13.37,.01-.16-.97-2.68,3.52-9.15,4.49-6.47,12.43-10.51,13.99-11.65,6.39-4.64,10.75-4.89,17.07-9.69,3.41-2.59,6.02-6.11,7.68-10.09,8.45-20.25,15.23-40.59,17.31-61.09-.72-2.15-1.92-3.52-3.57-4.2l-4.1,23.09c-.5,2.8-1.26,5.55-2.29,8.21l-7.35,19.04c-4.44,11.52-13.49,20.66-24.95,25.22h0c-12.29,4.89-21.75,15.02-25.8,27.62l-5.71,17.76c-2.23,6.94-2.71,14.31-1.41,21.48l4.52,24.87c.05,.29,.12,.58,.17,.87,10.37-2.64,16.64-6.06,16.64-6.06,.81,0-2.66-13.63-4.64-19.03Z"/>
          <path class="cls-14" d="M696.19,226.95c-2.21-6.01-3.92-12.13-3.62-18.64,.04-.95,.13-1.88,.49-2.76-.01-.08-.03-.16-.04-.25-.01-.08-.02-.16-.02-.25,.04-.64,.1-1.28,.17-1.92,.49-4.48,1.62-8.87,1.92-13.37,.01-.16-.97-2.68,3.52-9.15,4.49-6.47,12.43-10.51,13.99-11.65,6.39-4.64,10.75-4.89,17.07-9.69,3.41-2.59,6.02-6.11,7.68-10.09,8.45-20.25,15.23-40.59,17.31-61.09-.72-2.15-1.92-3.52-3.57-4.2l-4.1,23.09c-.5,2.8-1.26,5.55-2.29,8.21l-7.35,19.04c-4.44,11.52-13.49,20.66-24.95,25.22h0c-12.29,4.89-21.75,15.02-25.8,27.62l-5.71,17.76c-2.23,6.94-2.71,14.31-1.41,21.48l4.52,24.87c.05,.29,.12,.58,.17,.87,10.37-2.64,16.64-6.06,16.64-6.06,.81,0-2.66-13.63-4.64-19.03Z"/>
        </g>
        <polygon class="cls-21" points="639.85 146.51 648.59 172.95 661.68 173.17 689.86 142.7 680.31 140.97 654.29 167.97 656.45 165.55 650.23 143.39 639.85 146.51"/>
      </g>
      <g>
        <circle class="cls-8" cx="655.88" cy="178.64" r="10.24"/>
        <circle class="cls-22" cx="654.03" cy="178.64" r="10.24"/>
      </g>
      <polygon class="cls-11" points="607 652.79 578.25 669.29 577.86 686.28 587.07 681 586.72 703.21 599.21 695.74 599.55 673.83 606.61 669.78 607 652.79"/>
      <polygon class="cls-11" points="684.27 611 655.52 627.5 655.13 644.49 664.33 639.2 663.99 661.42 676.48 653.95 676.82 632.04 683.88 627.99 684.27 611"/>
      <polygon class="cls-11" points="760.35 571.08 731.61 587.58 731.21 604.57 740.42 599.29 740.08 621.5 752.57 614.03 752.91 592.12 759.96 588.07 760.35 571.08"/>
      <polygon class="cls-7" points="756.89 510.52 728.14 527.02 727.75 544.01 736.96 538.72 736.62 560.94 749.1 553.47 749.45 531.55 756.5 527.51 756.89 510.52"/>
      <polygon class="cls-7" points="622.68 707.72 651.43 691.22 651.82 674.23 642.62 679.51 642.96 657.3 630.47 664.77 630.13 686.68 623.07 690.73 622.68 707.72"/>
      <polygon class="cls-7" points="546.28 749.56 575.02 733.06 575.42 716.07 566.21 721.36 566.55 699.14 554.07 706.61 553.72 728.52 546.67 732.57 546.28 749.56"/>
      <polygon class="cls-7" points="692.47 666.74 721.22 650.24 721.61 633.25 712.41 638.54 712.75 616.32 700.26 623.79 699.92 645.7 692.86 649.75 692.47 666.74"/>
      <polygon class="cls-7" points="768.08 627.14 796.83 610.64 797.22 593.65 788.01 598.94 788.35 576.72 775.87 584.19 775.52 606.1 768.47 610.15 768.08 627.14"/>
      <polygon class="cls-4" points="768.08 564.26 796.83 547.76 797.22 530.77 788.01 536.05 788.35 513.84 775.87 521.31 775.52 543.22 768.47 547.27 768.08 564.26"/>
      <polygon class="cls-4" points="693.79 601.93 722.53 585.43 722.93 568.44 713.72 573.73 714.06 551.51 701.57 558.98 701.23 580.89 694.18 584.94 693.79 601.93"/>
    </g>
  </g>
</svg>